<?xml version="1.0" encoding="utf-8"?>
<!-- Generator: Adobe Illustrator 20.1.0, SVG Export Plug-In . SVG Version: 6.00 Build 0)  -->
<svg version="1.1" id="Layer_1" xmlns="http://www.w3.org/2000/svg" xmlns:xlink="http://www.w3.org/1999/xlink" x="0px" y="0px"
   viewBox="0 0 283.7 67.3" style="enable-background:new 0 0 283.7 67.3;" xml:space="preserve">
<style type="text/css">
  .st0{fill:#FFFFFF;}
  .st1{fill:none;stroke:#E31837;stroke-width:1.3;}
  .st2{fill:none;stroke:#000000;stroke-width:0.5;stroke-miterlimit:10;}
  .st3{display:none;fill:#E31837;enable-background:new    ;}
  .st4{font-family:'ArialMT';}
  .st5{font-size:13.5149px;}
  .st6{fill:#D0202F;}
  .st7{fill:#919194;}
</style>
<rect x="0.6" y="0.6" class="st0" width="282.4" height="66"/>
<g>
  <path class="st0" d="M7.4,0.6c0,0-6.7,0-6.7,6.7V60c0,0,0,6.7,6.7,6.7h268.9c0,0,6.7,0,6.7-6.7V7.3c0,0,0-6.7-6.7-6.7H7.4z"/>
  <path class="st1" d="M0.6,0.6c0,0,0,0,0,6.7v59.3c0,0,0,0,6.7,0h275.7c0,0,0,0,0-6.7V0.6h-6.7H0.6z"/>
</g>
<line class="st2" x1="45.2" y1="61.6" x2="108.2" y2="61.6"/>
<line class="st2" x1="11" y1="41.7" x2="99.3" y2="41.7"/>
<g>
  <path d="M22,10.6V4.1h0.9v6.4H22V10.6z"/>
  <path d="M24.5,10.6V6.5h-0.7V5.8h0.7V5.3c0-0.3,0-0.5,0.1-0.7c0-0.2,0.2-0.4,0.4-0.5S25.5,4,25.8,4c0.2,0,0.5,0,0.7,0.1l-0.1,0.7
    c-0.2,0-0.3,0-0.5,0S25.5,4.9,25.4,5c-0.1,0.1-0.1,0.3-0.1,0.6V6h0.9v0.5h-0.9v4.1H24.5z"/>
  <path d="M29.2,12.3l-0.1-0.7c0.2,0,0.3,0.1,0.5,0.1s0.3,0,0.4-0.1s0.2-0.1,0.3-0.2c0-0.1,0.1-0.3,0.2-0.6c0,0,0-0.1,0.1-0.2
    l-1.8-4.8h0.9l1,2.7c0.1,0.3,0.2,0.7,0.3,1.1c0.1-0.4,0.2-0.7,0.3-1.1l1-2.7H33l-1.8,4.7C31,11,31,11.4,30.8,11.6
    c-0.1,0.3-0.3,0.5-0.5,0.6c-0.2,0.1-0.4,0.2-0.6,0.2S29.3,12.3,29.2,12.3z"/>
  <path d="M33.5,8.1c0-0.9,0.2-1.5,0.7-1.9c0.4-0.3,0.9-0.5,1.5-0.5s1.2,0.2,1.6,0.6c0.4,0.4,0.6,1,0.6,1.7c0,0.6-0.1,1.1-0.3,1.4
    c-0.2,0.3-0.4,0.6-0.8,0.8c-0.3,0.2-0.7,0.3-1.1,0.3c-0.7,0-1.2-0.2-1.6-0.6C33.7,9.6,33.5,8.9,33.5,8.1z M34.2,8.1
    c0,0.6,0.1,1,0.4,1.3c0.3,0.3,0.6,0.4,1,0.4s0.7-0.1,1-0.4s0.4-0.8,0.4-1.4s-0.1-1-0.4-1.3c-0.3-0.3-0.6-0.4-1-0.4s-0.7,0.1-1,0.4
    S34.2,7.6,34.2,8.1z"/>
  <path d="M41.8,10.6V9.9c-0.4,0.5-0.9,0.8-1.5,0.8c-0.3,0-0.5-0.1-0.8-0.2S39,10.3,39,10.1s-0.2-0.4-0.2-0.6c0-0.2,0-0.4,0-0.7V5.9
    h0.8v2.6c0,0.4,0,0.7,0,0.8c0,0.2,0.2,0.4,0.3,0.5c0.2,0.1,0.4,0.2,0.6,0.2s0.5-0.1,0.7-0.2c0.2-0.1,0.4-0.3,0.4-0.5
    c0.1-0.2,0.1-0.5,0.1-0.9V5.9h0.8v4.7H41.8z"/>
  <path d="M43.8,10.6V5.9h0.7v0.7c0.2-0.3,0.3-0.5,0.5-0.7c0.2-0.1,0.3-0.2,0.5-0.2c0.3,0,0.5,0.1,0.8,0.3L46,6.7
    c-0.2-0.1-0.4-0.2-0.6-0.2c-0.2,0-0.3,0.1-0.5,0.2c-0.1,0.1-0.2,0.2-0.3,0.4c-0.1,0.3-0.1,0.6-0.1,0.9v2.4h-0.7V10.6z"/>
  <path d="M49.2,12.3V5.8H50v0.6c0.2-0.2,0.4-0.4,0.6-0.5c0.2-0.1,0.5-0.2,0.8-0.2c0.4,0,0.8,0.1,1.1,0.3s0.5,0.5,0.7,0.9
    s0.2,0.8,0.2,1.2c0,0.5-0.1,0.9-0.3,1.3c-0.2,0.4-0.4,0.7-0.7,0.9s-0.7,0.3-1,0.3s-0.5-0.1-0.7-0.2s-0.4-0.3-0.5-0.4v2.3H49.2z
     M50,8.2c0,0.6,0.1,1,0.4,1.3s0.5,0.4,0.9,0.4s0.7-0.1,0.9-0.4c0.2-0.3,0.4-0.8,0.4-1.4s-0.1-1-0.4-1.3c-0.2-0.3-0.5-0.4-0.9-0.4
    c-0.3,0-0.6,0.2-0.9,0.5C50,7.2,50,7.7,50,8.2z"/>
  <path d="M57.2,9.9c-0.3,0.2-0.6,0.4-0.8,0.5c-0.3,0.1-0.6,0.2-0.9,0.2c-0.5,0-0.9-0.1-1.2-0.4c-0.3-0.2-0.4-0.6-0.4-1
    c0-0.2,0.1-0.4,0.2-0.6c0.1-0.2,0.2-0.3,0.4-0.5C54.7,8,54.9,8,55.1,7.8c0.2,0,0.4-0.1,0.7-0.1c0.6-0.1,1.1-0.2,1.4-0.3
    c0-0.1,0-0.2,0-0.2c0-0.3-0.1-0.5-0.2-0.7c-0.2-0.2-0.5-0.3-0.9-0.3s-0.6,0.1-0.8,0.2c-0.2,0.1-0.3,0.4-0.4,0.7L54.1,7
    c0.1-0.3,0.2-0.6,0.3-0.8c0.2-0.2,0.4-0.4,0.7-0.5s0.7-0.2,1.1-0.2s0.7,0,1,0.1s0.4,0.2,0.5,0.4c0.1,0.1,0.2,0.3,0.2,0.5
    c0,0.1,0,0.4,0,0.7v1.1c0,0.7,0,1.2,0.1,1.4c0,0.2,0.1,0.4,0.2,0.6h-0.8C57.3,10.3,57.3,10.1,57.2,9.9z M57.2,8.1
    c-0.3,0.1-0.7,0.2-1.3,0.3c-0.3,0-0.6,0.1-0.7,0.2S55,8.8,54.9,8.9c-0.1,0.1-0.1,0.2-0.1,0.4s0.1,0.4,0.2,0.5s0.4,0.2,0.7,0.2
    c0.3,0,0.6-0.1,0.8-0.2c0.2-0.1,0.4-0.3,0.5-0.5s0.1-0.4,0.1-0.8L57.2,8.1L57.2,8.1z"/>
  <path d="M60.9,9.8l0.1,0.7c-0.2,0-0.4,0.1-0.6,0.1c-0.3,0-0.5,0-0.7-0.1s-0.3-0.2-0.3-0.4c-0.1-0.1-0.1-0.5-0.1-0.9V6.5h-0.6V5.8
    h0.6V4.7l0.8-0.5v1.6H61v0.7h-0.8v2.7c0,0.2,0,0.4,0,0.4s0.1,0.1,0.1,0.2c0.1,0,0.2,0.1,0.3,0.1C60.8,9.8,60.8,9.8,60.9,9.8z"/>
  <path d="M61.8,5V4.1h0.8V5H61.8z M61.8,10.6V5.9h0.8v4.7H61.8z"/>
  <path d="M66.9,9.1l0.8,0.1c-0.1,0.5-0.4,0.8-0.7,1.1s-0.8,0.4-1.3,0.4c-0.7,0-1.2-0.2-1.6-0.6c-0.4-0.4-0.6-1-0.6-1.8
    s0.2-1.4,0.6-1.8s0.9-0.7,1.6-0.7c0.6,0,1.1,0.2,1.5,0.6s0.6,1,0.6,1.8c0,0,0,0.1,0,0.2h-3.5c0,0.5,0.2,0.9,0.4,1.2
    c0.3,0.3,0.6,0.4,1,0.4c0.3,0,0.5-0.1,0.7-0.2S66.8,9.3,66.9,9.1z M64.3,7.8h2.6c0-0.4-0.1-0.7-0.3-0.9c-0.3-0.3-0.6-0.5-1-0.5
    s-0.7,0.1-0.9,0.4C64.6,7,64.3,7.3,64.3,7.8z"/>
  <path d="M68.8,10.6V5.9h0.7v0.7c0.3-0.5,0.8-0.8,1.5-0.8c0.3,0,0.5,0.1,0.8,0.2c0.2,0.1,0.4,0.2,0.5,0.4s0.2,0.4,0.2,0.6
    c0,0.1,0,0.4,0,0.8v2.9h-0.7V7.9c0-0.3,0-0.6-0.1-0.7c-0.1-0.2-0.2-0.3-0.3-0.4c-0.2-0.3-0.4-0.3-0.6-0.3c-0.3,0-0.6,0.1-0.9,0.3
    S69.4,7.4,69.4,8v2.5h-0.7V10.6z"/>
  <path d="M75.4,9.8l0.1,0.7c-0.2,0-0.4,0.1-0.6,0.1c-0.3,0-0.5,0-0.7-0.1s-0.3-0.2-0.3-0.4c-0.1-0.1-0.1-0.5-0.1-0.9V6.5h-0.6V5.8
    h0.6V4.7l0.8-0.5v1.6h0.8v0.7h-0.8v2.7c0,0.2,0,0.4,0,0.4s0.1,0.1,0.1,0.2c0.1,0,0.2,0.1,0.3,0.1C75.2,9.8,75.3,9.8,75.4,9.8z"/>
  <path d="M75.9,9.1L76.8,9c0,0.3,0.2,0.6,0.4,0.7c0.2,0.2,0.5,0.2,0.8,0.2c0.4,0,0.6-0.1,0.8-0.2c0.2-0.1,0.3-0.3,0.3-0.5
    S79,8.9,78.9,8.8c-0.1-0.1-0.4-0.2-0.8-0.3c-0.6-0.1-1-0.3-1.2-0.4c-0.2-0.1-0.4-0.3-0.5-0.4c-0.1-0.2-0.2-0.4-0.2-0.6
    c0-0.2,0-0.4,0.1-0.6c0.1-0.2,0.2-0.3,0.4-0.4C76.8,6,77,6,77.2,6c0.2-0.1,0.4-0.1,0.7-0.1c0.4,0,0.7,0.1,1,0.2
    c0.3,0.1,0.5,0.2,0.6,0.4s0.2,0.4,0.3,0.7L79,7.2c0-0.2-0.1-0.4-0.3-0.6c-0.2-0.1-0.4-0.2-0.7-0.2c-0.4,0-0.6,0.1-0.8,0.2
    S77,6.9,77,7c0,0.1,0,0.2,0.1,0.3s0.2,0.2,0.3,0.2c0.1,0,0.3,0.1,0.7,0.2C78.7,7.8,79,8,79.3,8.1c0.2,0.1,0.4,0.2,0.5,0.4
    S80,8.9,80,9.2s-0.1,0.5-0.2,0.7c-0.2,0.2-0.4,0.4-0.7,0.5c-0.3,0.1-0.6,0.2-1,0.2c-0.6,0-1.1-0.1-1.4-0.4
    C76.2,9.9,76.1,9.6,75.9,9.1z"/>
  <path d="M86.2,10.6V9.9c-0.3,0.5-0.7,0.7-1.3,0.7c-0.4,0-0.7-0.1-1-0.3s-0.6-0.5-0.7-0.9c-0.2-0.4-0.3-0.8-0.3-1.3s0.1-0.9,0.2-1.3
    c0.2-0.4,0.4-0.7,0.7-0.9c0.3-0.2,0.7-0.3,1-0.3s0.5,0.1,0.8,0.2C85.8,6,86,6.2,86.1,6.3V4.1h0.8v6.4h-0.7V10.6z M83.8,8.1
    c0,0.6,0.1,1,0.4,1.3s0.5,0.4,0.9,0.4c0.3,0,0.6-0.1,0.9-0.4c0.2-0.3,0.4-0.7,0.4-1.3S86.3,7,86,6.8s-0.5-0.4-0.9-0.4
    s-0.6,0.1-0.9,0.4C83.9,7.2,83.8,7.6,83.8,8.1z"/>
  <path d="M87.9,8.1c0-0.9,0.2-1.5,0.7-1.9C89,6,89.5,5.8,90.1,5.8s1.2,0.2,1.6,0.6c0.4,0.4,0.6,1,0.6,1.7c0,0.6-0.1,1.1-0.3,1.4
    c-0.2,0.3-0.4,0.6-0.8,0.8c-0.3,0.2-0.7,0.3-1.1,0.3c-0.7,0-1.2-0.2-1.6-0.6C88.2,9.6,87.9,8.9,87.9,8.1z M88.8,8.1
    c0,0.6,0.1,1,0.4,1.3s0.6,0.4,1,0.4s0.7-0.1,1-0.4s0.4-0.8,0.4-1.4s-0.1-1-0.4-1.3s-0.6-0.4-1-0.4s-0.7,0.1-1,0.4
    S88.8,7.6,88.8,8.1z"/>
  <path d="M95.8,10.6V5.9h0.7v0.7c0.3-0.5,0.8-0.8,1.5-0.8c0.3,0,0.5,0.1,0.8,0.2c0.2,0.1,0.4,0.2,0.5,0.4s0.2,0.4,0.2,0.6
    c0,0.1,0,0.4,0,0.8v2.9h-0.7V7.9c0-0.3,0-0.6-0.1-0.7c-0.1-0.2-0.2-0.3-0.3-0.4c-0.2-0.1-0.3-0.1-0.6-0.1c-0.3,0-0.6,0.1-0.9,0.3
    s-0.4,0.6-0.4,1.2v2.5h-0.7V10.6z"/>
  <path d="M100.4,8.1c0-0.9,0.2-1.5,0.7-1.9c0.4-0.3,0.9-0.5,1.5-0.5s1.2,0.2,1.6,0.6c0.4,0.4,0.6,1,0.6,1.7c0,0.6-0.1,1.1-0.3,1.4
    c-0.2,0.3-0.4,0.6-0.8,0.8c-0.3,0.2-0.7,0.3-1.1,0.3c-0.7,0-1.2-0.2-1.6-0.6C100.7,9.6,100.4,8.9,100.4,8.1z M101.2,8.1
    c0,0.6,0.1,1,0.4,1.3s0.6,0.4,1,0.4s0.7-0.1,1-0.4s0.4-0.8,0.4-1.4s-0.1-1-0.4-1.3s-0.6-0.4-1-0.4s-0.7,0.1-1,0.4
    S101.2,7.6,101.2,8.1z"/>
  <path d="M107.6,9.8l0.1,0.7c-0.2,0-0.4,0.1-0.6,0.1c-0.3,0-0.5,0-0.7-0.1s-0.3-0.2-0.3-0.4C106,10,106,9.6,106,9.2V6.5h-0.6V5.8
    h0.6V4.7l0.8-0.5v1.6h0.8v0.7h-0.8v2.7c0,0.2,0,0.4,0,0.4s0.1,0.1,0.1,0.2c0.1,0,0.2,0.1,0.3,0.1C107.2,9.8,107.3,9.8,107.6,9.8z"
    />
  <path d="M110.8,10.6V4.1h0.8v2.3c0.4-0.4,0.8-0.6,1.4-0.6c0.3,0,0.6,0.1,0.9,0.2c0.3,0.1,0.4,0.3,0.5,0.6c0.1,0.2,0.2,0.6,0.2,1v3
    h-0.8v-3c0-0.4-0.1-0.7-0.3-0.9c-0.2-0.2-0.4-0.3-0.7-0.3c-0.2,0-0.5,0.1-0.7,0.2c-0.2,0.1-0.4,0.3-0.4,0.5s-0.1,0.5-0.1,0.9v2.6
    H110.8z"/>
  <path d="M118.8,9.9c-0.3,0.2-0.6,0.4-0.8,0.5c-0.3,0.1-0.6,0.2-0.9,0.2c-0.5,0-0.9-0.1-1.2-0.4c-0.3-0.2-0.4-0.6-0.4-1
    c0-0.2,0.1-0.4,0.2-0.6c0.1-0.2,0.2-0.3,0.4-0.5c0.2-0.2,0.4-0.2,0.6-0.3c0.2,0,0.4-0.1,0.7-0.1c0.6-0.1,1.1-0.2,1.4-0.3
    c0-0.1,0-0.2,0-0.2c0-0.3-0.1-0.5-0.2-0.7c-0.2-0.2-0.5-0.3-0.9-0.3s-0.6,0.1-0.8,0.2c-0.2,0.1-0.3,0.4-0.4,0.7L115.7,7
    c0.1-0.3,0.2-0.6,0.3-0.8c0.2-0.2,0.4-0.4,0.7-0.5c0.3-0.1,0.7-0.2,1.1-0.2s0.7,0,1,0.1s0.4,0.2,0.5,0.4c0.1,0.1,0.2,0.3,0.2,0.5
    c0,0.1,0,0.4,0,0.7v1.1c0,0.7,0,1.2,0.1,1.4c0,0.2,0.1,0.4,0.2,0.6H119C118.9,10.3,118.8,10.1,118.8,9.9z M118.8,8.1
    c-0.3,0.1-0.7,0.2-1.3,0.3c-0.3,0-0.6,0.1-0.7,0.2s-0.2,0.1-0.3,0.3c-0.1,0.1-0.1,0.2-0.1,0.4s0.1,0.4,0.2,0.5s0.4,0.2,0.7,0.2
    c0.3,0,0.6-0.1,0.8-0.2c0.2-0.1,0.4-0.3,0.5-0.5s0.1-0.4,0.1-0.8V8.1H118.8z"/>
  <path d="M122.1,10.6l-1.8-4.7h0.8l1,2.8c0.1,0.3,0.2,0.6,0.3,0.9c0.1-0.2,0.2-0.5,0.3-0.9l1-2.8h0.8l-1.8,4.7H122.1z"/>
  <path d="M128.4,9.1l0.8,0.1c-0.1,0.5-0.4,0.8-0.7,1.1s-0.8,0.4-1.3,0.4c-0.7,0-1.2-0.2-1.6-0.6c-0.4-0.4-0.6-1-0.6-1.8
    s0.2-1.4,0.6-1.8s0.9-0.7,1.6-0.7c0.6,0,1.1,0.2,1.5,0.6s0.6,1,0.6,1.8c0,0,0,0.1,0,0.2h-3.5c0,0.5,0.2,0.9,0.4,1.2
    c0.3,0.3,0.6,0.4,1,0.4c0.3,0,0.5-0.1,0.7-0.2S128.4,9.3,128.4,9.1z M125.9,7.8h2.6c0-0.4-0.1-0.7-0.3-0.9c-0.3-0.3-0.6-0.5-1-0.5
    s-0.7,0.1-0.9,0.4C126.1,7,125.9,7.3,125.9,7.8z"/>
  <path d="M13.5,22.4v-6.5h0.7v0.6c0.2-0.2,0.4-0.4,0.6-0.5c0.2-0.1,0.5-0.2,0.8-0.2c0.4,0,0.8,0.1,1.1,0.3c0.3,0.2,0.5,0.5,0.7,0.9
    s0.2,0.8,0.2,1.2c0,0.5-0.1,0.9-0.3,1.3c-0.2,0.4-0.4,0.7-0.7,0.9c-0.3,0.2-0.7,0.3-1,0.3s-0.5-0.1-0.7-0.2s-0.4-0.3-0.5-0.4v2.3
    C14.4,22.3,13.5,22.3,13.5,22.4z M14.1,18.2c0,0.6,0.1,1,0.4,1.3s0.5,0.4,0.9,0.4s0.7-0.1,0.9-0.4c0.2-0.3,0.4-0.8,0.4-1.4
    s-0.1-1-0.4-1.3c-0.2-0.3-0.5-0.4-0.9-0.4c-0.3,0-0.6,0.2-0.9,0.5C14.4,17.2,14.1,17.7,14.1,18.2z"/>
  <path d="M18.5,20.6v-4.7h0.7v0.7c0.2-0.3,0.3-0.5,0.5-0.7c0.2-0.1,0.3-0.2,0.5-0.2c0.3,0,0.5,0.1,0.8,0.3l-0.2,0.8
    c-0.2-0.1-0.4-0.2-0.6-0.2s-0.3,0.1-0.5,0.2c-0.1,0.1-0.2,0.2-0.3,0.4c-0.1,0.3-0.1,0.6-0.1,0.9v2.4h-0.8V20.6z"/>
  <path d="M24.7,19.1l0.8,0.1c-0.1,0.5-0.4,0.8-0.7,1.1s-0.8,0.4-1.3,0.4c-0.7,0-1.2-0.2-1.6-0.6s-0.6-1-0.6-1.8s0.2-1.4,0.6-1.8
    s0.9-0.7,1.6-0.7c0.6,0,1.1,0.2,1.5,0.6c0.4,0.4,0.6,1,0.6,1.8c0,0,0,0.1,0,0.2H22c0,0.5,0.2,0.9,0.4,1.2c0.3,0.3,0.6,0.4,1,0.4
    c0.3,0,0.5-0.1,0.7-0.2S24.5,19.4,24.7,19.1z M22,17.8h2.6c0-0.4-0.1-0.7-0.3-0.9c-0.3-0.3-0.6-0.5-1-0.5s-0.7,0.1-0.9,0.4
    C22.2,17,22.1,17.4,22,17.8z"/>
  <path d="M26.2,19.2l0.8-0.1c0,0.3,0.2,0.6,0.4,0.7c0.2,0.2,0.5,0.2,0.8,0.2c0.4,0,0.6-0.1,0.8-0.2s0.3-0.3,0.3-0.5S29.2,19,29,18.9
    c-0.1-0.1-0.4-0.2-0.8-0.3c-0.6-0.1-1-0.3-1.2-0.4s-0.4-0.3-0.5-0.4c-0.1-0.2-0.2-0.4-0.2-0.6s0-0.4,0.1-0.6s0.2-0.3,0.4-0.4
    c0.1-0.1,0.3-0.2,0.5-0.2c0.2-0.1,0.4-0.1,0.7-0.1c0.4,0,0.7,0.1,1,0.2c0.3,0.1,0.5,0.2,0.6,0.4c0.1,0.2,0.2,0.4,0.3,0.7l-0.8,0.1
    c0-0.2-0.1-0.4-0.3-0.6c-0.2-0.1-0.4-0.2-0.7-0.2c-0.4,0-0.6,0.1-0.8,0.2s-0.2,0.3-0.2,0.4s0,0.2,0.1,0.3c0.1,0.1,0.2,0.2,0.3,0.2
    s0.3,0.1,0.7,0.2c0.6,0.1,0.9,0.3,1.2,0.4c0.2,0.1,0.4,0.2,0.5,0.4s0.2,0.4,0.2,0.7c0,0.3-0.1,0.5-0.2,0.7
    c-0.2,0.2-0.4,0.4-0.7,0.5s-0.6,0.2-1,0.2c-0.6,0-1.1-0.1-1.4-0.4C26.5,20,26.2,19.7,26.2,19.2z"/>
  <path d="M34,18.9l0.8,0.1c-0.1,0.5-0.3,1-0.7,1.3s-0.8,0.5-1.3,0.5c-0.6,0-1.2-0.2-1.5-0.6c-0.4-0.4-0.6-1-0.6-1.8
    c0-0.5,0.1-0.9,0.3-1.3s0.4-0.7,0.8-0.9c0.3-0.2,0.7-0.3,1.1-0.3c0.5,0,0.9,0.1,1.2,0.4c0.3,0.3,0.5,0.6,0.6,1.1l-0.8,0.1
    c-0.1-0.3-0.2-0.5-0.4-0.7s-0.4-0.2-0.7-0.2c-0.4,0-0.7,0.1-1,0.4c-0.2,0.3-0.4,0.7-0.4,1.4c0,0.6,0.1,1.1,0.4,1.4s0.6,0.4,0.9,0.4
    c0.3,0,0.6-0.1,0.8-0.3S34,19.2,34,18.9z"/>
  <path d="M35.5,20.6v-4.7h0.7v0.7c0.2-0.3,0.3-0.5,0.5-0.7c0.2-0.1,0.3-0.2,0.5-0.2c0.3,0,0.5,0.1,0.8,0.3l-0.2,0.8
    c-0.2-0.1-0.4-0.2-0.6-0.2c-0.2,0-0.3,0.1-0.5,0.2c-0.1,0.1-0.2,0.2-0.3,0.4c-0.1,0.3-0.1,0.6-0.1,0.9v2.4h-0.8V20.6z"/>
  <path d="M38.5,14.9v-0.9h0.8v0.9H38.5z M38.5,20.6v-4.7h0.8v4.7C39.2,20.6,38.5,20.6,38.5,20.6z"/>
  <path d="M40.5,22.4v-6.5h0.7v0.6c0.2-0.2,0.4-0.4,0.6-0.5c0.2-0.1,0.5-0.2,0.8-0.2c0.4,0,0.8,0.1,1.1,0.3c0.3,0.2,0.5,0.5,0.7,0.9
    s0.2,0.8,0.2,1.2c0,0.5-0.1,0.9-0.3,1.3s-0.4,0.7-0.7,0.9c-0.3,0.2-0.7,0.3-1,0.3s-0.5-0.1-0.7-0.2s-0.4-0.3-0.5-0.4v2.3
    C41.3,22.3,40.5,22.3,40.5,22.4z M41.2,18.2c0,0.6,0.1,1,0.4,1.3s0.5,0.4,0.9,0.4s0.7-0.1,0.9-0.4s0.4-0.8,0.4-1.4s-0.1-1-0.4-1.3
    c-0.2-0.3-0.5-0.4-0.9-0.4c-0.3,0-0.6,0.2-0.9,0.5C41.3,17.2,41.2,17.7,41.2,18.2z"/>
  <path d="M47.2,19.9l0.1,0.7c-0.2,0-0.4,0.1-0.6,0.1c-0.3,0-0.5,0-0.7-0.1s-0.3-0.2-0.3-0.4c-0.1-0.1-0.1-0.5-0.1-0.9v-2.8h-0.6
    v-0.6h0.6v-1.2l0.8-0.5v1.6h0.8v0.7h-0.8v2.7c0,0.2,0,0.4,0,0.4s0.1,0.1,0.1,0.2c0.1,0,0.2,0.1,0.3,0.1C47,19.9,47,19.9,47.2,19.9z
    "/>
  <path d="M48,14.9v-0.9h0.8v0.9H48z M48,20.6v-4.7h0.8v4.7C48.8,20.6,48,20.6,48,20.6z"/>
  <path d="M49.7,18.2c0-0.9,0.2-1.5,0.7-1.9c0.4-0.3,0.9-0.5,1.5-0.5s1.2,0.2,1.6,0.6c0.4,0.4,0.6,1,0.6,1.7c0,0.6-0.1,1.1-0.3,1.4
    s-0.4,0.6-0.8,0.8c-0.3,0.2-0.7,0.3-1.1,0.3c-0.7,0-1.2-0.2-1.6-0.6C49.8,19.6,49.7,19,49.7,18.2z M50.5,18.2c0,0.6,0.1,1,0.4,1.3
    c0.3,0.3,0.6,0.4,1,0.4s0.7-0.1,1-0.4s0.4-0.8,0.4-1.4s-0.1-1-0.4-1.3c-0.3-0.3-0.6-0.4-1-0.4s-0.7,0.1-1,0.4S50.5,17.6,50.5,18.2z
    "/>
  <path d="M55,20.6v-4.7h0.8v0.7c0.3-0.5,0.8-0.8,1.5-0.8c0.3,0,0.5,0.1,0.8,0.2c0.2,0.1,0.4,0.2,0.5,0.4s0.2,0.4,0.2,0.6
    c0,0.1,0,0.4,0,0.8v2.9h-0.8v-2.8c0-0.3,0-0.6-0.1-0.7c-0.1-0.2-0.2-0.3-0.3-0.4c-0.1-0.3-0.3-0.3-0.5-0.3c-0.3,0-0.6,0.1-0.9,0.3
    s-0.4,0.6-0.4,1.2v2.5H55V20.6z"/>
  <path d="M65.6,18.9l0.8,0.1c-0.1,0.5-0.3,1-0.7,1.3c-0.4,0.3-0.8,0.5-1.3,0.5c-0.6,0-1.2-0.2-1.5-0.6c-0.4-0.4-0.6-1-0.6-1.8
    c0-0.5,0.1-0.9,0.3-1.3s0.4-0.7,0.8-0.9c0.3-0.2,0.7-0.3,1.1-0.3c0.5,0,0.9,0.1,1.2,0.4c0.3,0.3,0.5,0.6,0.6,1.1l-0.8,0.1
    c-0.1-0.3-0.2-0.5-0.4-0.7s-0.4-0.2-0.7-0.2c-0.4,0-0.7,0.1-1,0.4c-0.2,0.3-0.4,0.7-0.4,1.4c0,0.6,0.1,1.1,0.4,1.4s0.6,0.4,0.9,0.4
    s0.6-0.1,0.8-0.3S65.4,19.2,65.6,18.9z"/>
  <path d="M66.8,18.2c0-0.9,0.2-1.5,0.7-1.9c0.4-0.3,0.9-0.5,1.5-0.5s1.2,0.2,1.6,0.6c0.4,0.4,0.6,1,0.6,1.7c0,0.6-0.1,1.1-0.3,1.4
    c-0.2,0.3-0.4,0.6-0.8,0.8c-0.3,0.2-0.7,0.3-1.1,0.3c-0.7,0-1.2-0.2-1.6-0.6C66.9,19.6,66.8,19,66.8,18.2z M67.6,18.2
    c0,0.6,0.1,1,0.4,1.3s0.6,0.4,1,0.4s0.7-0.1,1-0.4s0.4-0.8,0.4-1.4s-0.1-1-0.4-1.3s-0.6-0.4-1-0.4s-0.7,0.1-1,0.4
    S67.6,17.6,67.6,18.2z"/>
  <path d="M73.3,20.6l-1.8-4.7h0.8l1,2.8c0.1,0.3,0.2,0.6,0.3,0.9c0.1-0.2,0.2-0.5,0.3-0.9l1-2.8h0.8L74,20.6
    C74,20.6,73.3,20.6,73.3,20.6z"/>
  <path d="M79.8,19.1l0.8,0.1c-0.1,0.5-0.4,0.8-0.7,1.1s-0.8,0.4-1.3,0.4c-0.7,0-1.2-0.2-1.6-0.6s-0.6-1-0.6-1.8s0.2-1.4,0.6-1.8
    s0.9-0.7,1.6-0.7c0.6,0,1.1,0.2,1.5,0.6c0.4,0.4,0.6,1,0.6,1.8c0,0,0,0.1,0,0.2h-3.5c0,0.5,0.2,0.9,0.4,1.2c0.3,0.3,0.6,0.4,1,0.4
    c0.3,0,0.5-0.1,0.7-0.2S79.6,19.4,79.8,19.1z M77.2,17.8h2.6c0-0.4-0.1-0.7-0.3-0.9c-0.3-0.3-0.6-0.5-1-0.5s-0.7,0.1-0.9,0.4
    C77.2,17,77.2,17.4,77.2,17.8z"/>
  <path d="M81.6,20.6v-4.7h0.7v0.7c0.2-0.3,0.3-0.5,0.5-0.7c0.2-0.1,0.3-0.2,0.5-0.2c0.3,0,0.5,0.1,0.8,0.3l-0.3,0.8
    c-0.2-0.1-0.4-0.2-0.6-0.2s-0.3,0.1-0.5,0.2c-0.1,0.1-0.2,0.2-0.3,0.4c-0.1,0.3-0.1,0.6-0.1,0.9v2.4h-0.7V20.6z"/>
  <path d="M87.6,20c-0.3,0.2-0.6,0.4-0.8,0.5c-0.3,0.1-0.6,0.2-0.9,0.2c-0.5,0-0.9-0.1-1.2-0.4c-0.3-0.2-0.4-0.6-0.4-1
    c0-0.2,0.1-0.4,0.2-0.6s0.2-0.3,0.4-0.5s0.4-0.2,0.6-0.3c0.2,0,0.4-0.1,0.7-0.1c0.6-0.1,1.1-0.2,1.4-0.3c0-0.1,0-0.2,0-0.2
    c0-0.3-0.1-0.5-0.2-0.7c-0.2-0.2-0.5-0.3-0.9-0.3s-0.6,0.1-0.8,0.2c-0.2,0.1-0.3,0.4-0.4,0.7l-0.8-0.1c0.1-0.3,0.2-0.6,0.3-0.8
    c0.2-0.2,0.4-0.4,0.7-0.5c0.3-0.1,0.7-0.2,1.1-0.2s0.7,0,1,0.1s0.4,0.2,0.5,0.4c0.1,0.1,0.2,0.3,0.2,0.5c0,0.1,0,0.4,0,0.7v1.1
    c0,0.7,0,1.2,0.1,1.4c0,0.2,0.1,0.4,0.2,0.6h-0.8C87.7,20.4,87.6,20.2,87.6,20z M87.4,18.2c-0.3,0.1-0.7,0.2-1.3,0.3
    c-0.3,0-0.6,0.1-0.7,0.2s-0.2,0.1-0.3,0.3C85,19.1,85,19.2,85,19.4c0,0.2,0.1,0.4,0.2,0.5s0.4,0.2,0.7,0.2c0.3,0,0.6-0.1,0.8-0.2
    c0.2-0.1,0.4-0.3,0.5-0.5s0.1-0.4,0.1-0.8v-0.4H87.4z"/>
  <path d="M89.3,20.9l0.8,0.1c0,0.2,0.1,0.4,0.3,0.5c0.2,0.1,0.5,0.2,0.8,0.2c0.4,0,0.6-0.1,0.8-0.2s0.3-0.4,0.4-0.6
    c0-0.2,0.1-0.5,0.1-1c-0.3,0.4-0.8,0.6-1.3,0.6c-0.6,0-1.1-0.2-1.5-0.7s-0.5-1-0.5-1.7c0-0.4,0.1-0.9,0.2-1.2
    c0.2-0.4,0.4-0.7,0.7-0.9c0.3-0.2,0.7-0.3,1.1-0.3c0.6,0,1,0.2,1.4,0.7v-0.6h0.7v4c0,0.7-0.1,1.2-0.2,1.5s-0.4,0.5-0.7,0.7
    c-0.3,0.2-0.7,0.3-1.2,0.3c-0.6,0-1-0.1-1.3-0.4C89.6,21.8,89.3,21.5,89.3,20.9z M90.1,18.1c0,0.6,0.1,1.1,0.4,1.3s0.5,0.4,0.9,0.4
    s0.7-0.1,0.9-0.4c0.2-0.3,0.4-0.7,0.4-1.3c0-0.6-0.1-1-0.4-1.3s-0.6-0.4-0.9-0.4c-0.4,0-0.7,0.1-0.9,0.4
    C90.2,17.2,90.1,17.6,90.1,18.1z"/>
  <path d="M97.8,19.1l0.8,0.1c-0.1,0.5-0.4,0.8-0.7,1.1s-0.8,0.4-1.3,0.4c-0.7,0-1.2-0.2-1.6-0.6s-0.6-1-0.6-1.8s0.2-1.4,0.6-1.8
    s0.9-0.7,1.6-0.7c0.6,0,1.1,0.2,1.5,0.6c0.4,0.4,0.6,1,0.6,1.8c0,0,0,0.1,0,0.2h-3.5c0,0.5,0.2,0.9,0.4,1.2c0.3,0.3,0.6,0.4,1,0.4
    c0.3,0,0.5-0.1,0.7-0.2S97.6,19.4,97.8,19.1z M95.2,17.8h2.6c0-0.4-0.1-0.7-0.3-0.9c-0.3-0.3-0.6-0.5-1-0.5s-0.7,0.1-0.9,0.4
    C95.2,17,95.2,17.4,95.2,17.8z"/>
  <path d="M105.1,20c-0.3,0.2-0.6,0.4-0.8,0.5c-0.3,0.1-0.6,0.2-0.9,0.2c-0.5,0-0.9-0.1-1.2-0.4c-0.3-0.2-0.4-0.6-0.4-1
    c0-0.2,0.1-0.4,0.2-0.6s0.2-0.3,0.4-0.5s0.4-0.2,0.6-0.3c0.2,0,0.4-0.1,0.7-0.1c0.6-0.1,1.1-0.2,1.4-0.3c0-0.1,0-0.2,0-0.2
    c0-0.3-0.1-0.5-0.2-0.7c-0.2-0.2-0.5-0.3-0.9-0.3s-0.6,0.1-0.8,0.2c-0.2,0.1-0.3,0.4-0.4,0.7l-0.8-0.1c0.1-0.3,0.2-0.6,0.3-0.8
    c0.2-0.2,0.4-0.4,0.7-0.5c0.3-0.1,0.7-0.2,1.1-0.2s0.7,0,1,0.1s0.4,0.2,0.5,0.4c0.1,0.1,0.2,0.3,0.2,0.5c0,0.1,0,0.4,0,0.7v1.1
    c0,0.7,0,1.2,0.1,1.4c0,0.2,0.1,0.4,0.2,0.6h-0.8C105.2,20.4,105.1,20.2,105.1,20z M105.1,18.2c-0.3,0.1-0.7,0.2-1.3,0.3
    c-0.3,0-0.6,0.1-0.7,0.2s-0.2,0.1-0.3,0.3c-0.1,0.1-0.1,0.2-0.1,0.4c0,0.2,0.1,0.4,0.2,0.5s0.4,0.2,0.7,0.2c0.3,0,0.6-0.1,0.8-0.2
    c0.2-0.1,0.4-0.3,0.5-0.5s0.1-0.4,0.1-0.8v-0.4H105.1z"/>
  <path d="M107.1,20.6v-4.7h0.7v0.7c0.3-0.5,0.8-0.8,1.5-0.8c0.3,0,0.5,0.1,0.8,0.2c0.2,0.1,0.4,0.2,0.5,0.4s0.2,0.4,0.2,0.6
    c0,0.1,0,0.4,0,0.8v2.9h-0.8v-2.8c0-0.3,0-0.6-0.1-0.7c-0.1-0.2-0.2-0.3-0.3-0.4c-0.2-0.1-0.3-0.1-0.6-0.1c-0.3,0-0.6,0.1-0.9,0.3
    s-0.4,0.6-0.4,1.2v2.5h-0.6V20.6z"/>
  <path d="M115.1,20.6V20c-0.3,0.5-0.7,0.7-1.3,0.7c-0.4,0-0.7-0.1-1-0.3c-0.3-0.2-0.6-0.5-0.7-0.9c-0.2-0.4-0.3-0.8-0.3-1.3
    s0.1-0.9,0.2-1.3c0.2-0.4,0.4-0.7,0.7-0.9c0.3-0.2,0.7-0.3,1-0.3s0.5,0.1,0.8,0.2c0.2,0.1,0.4,0.3,0.5,0.5v-2.3h0.8v6.4L115.1,20.6
    L115.1,20.6z M112.6,18.2c0,0.6,0.1,1,0.4,1.3s0.5,0.4,0.9,0.4c0.3,0,0.6-0.1,0.9-0.4c0.2-0.3,0.4-0.7,0.4-1.3
    c0-0.6-0.1-1.1-0.4-1.4s-0.5-0.4-0.9-0.4s-0.6,0.1-0.9,0.4C112.7,17.2,112.6,17.6,112.6,18.2z"/>
  <path d="M122.6,18.9l0.8,0.1c-0.1,0.5-0.3,1-0.7,1.3s-0.8,0.5-1.3,0.5c-0.6,0-1.2-0.2-1.5-0.6c-0.4-0.4-0.6-1-0.6-1.8
    c0-0.5,0.1-0.9,0.3-1.3s0.4-0.7,0.8-0.9c0.3-0.2,0.7-0.3,1.1-0.3c0.5,0,0.9,0.1,1.2,0.4c0.3,0.3,0.5,0.6,0.6,1.1l-0.8,0.1
    c-0.1-0.3-0.2-0.5-0.4-0.7s-0.4-0.2-0.7-0.2c-0.4,0-0.7,0.1-1,0.4c-0.2,0.3-0.4,0.7-0.4,1.4c0,0.6,0.1,1.1,0.4,1.4s0.6,0.4,0.9,0.4
    c0.3,0,0.6-0.1,0.8-0.3S122.6,19.2,122.6,18.9z"/>
  <path d="M127.1,20c-0.3,0.2-0.6,0.4-0.8,0.5c-0.3,0.1-0.6,0.2-0.9,0.2c-0.5,0-0.9-0.1-1.2-0.4c-0.3-0.2-0.4-0.6-0.4-1
    c0-0.2,0.1-0.4,0.2-0.6c0.1-0.2,0.2-0.3,0.4-0.5s0.4-0.2,0.6-0.3c0.2,0,0.4-0.1,0.7-0.1c0.6-0.1,1.1-0.2,1.4-0.3c0-0.1,0-0.2,0-0.2
    c0-0.3-0.1-0.5-0.2-0.7c-0.2-0.2-0.5-0.3-0.9-0.3s-0.6,0.1-0.8,0.2s-0.3,0.4-0.4,0.7l-0.8-0.1c0.1-0.3,0.2-0.6,0.3-0.8
    c0.2-0.2,0.4-0.4,0.7-0.5s0.7-0.2,1.1-0.2c0.4,0,0.7,0,1,0.1s0.4,0.2,0.5,0.4c0.1,0.1,0.2,0.3,0.2,0.5c0,0.1,0,0.4,0,0.7v1.1
    c0,0.7,0,1.2,0.1,1.4c0,0.2,0.1,0.4,0.2,0.6h-0.8C127.1,20.4,127.1,20.2,127.1,20z M127.1,18.2c-0.3,0.1-0.7,0.2-1.3,0.3
    c-0.3,0-0.6,0.1-0.7,0.2s-0.2,0.1-0.3,0.3c-0.1,0.1-0.1,0.2-0.1,0.4c0,0.2,0.1,0.4,0.2,0.5s0.4,0.2,0.7,0.2s0.6-0.1,0.8-0.2
    s0.4-0.3,0.5-0.5s0.1-0.4,0.1-0.8v-0.4H127.1z"/>
  <path d="M129.1,20.6v-4.7h0.7v0.7c0.3-0.5,0.8-0.8,1.5-0.8c0.3,0,0.5,0.1,0.8,0.2c0.2,0.1,0.4,0.2,0.5,0.4s0.2,0.4,0.2,0.6
    c0,0.1,0,0.4,0,0.8v2.9h-0.8v-2.8c0-0.3,0-0.6-0.1-0.7c-0.1-0.2-0.2-0.3-0.3-0.4c-0.2-0.1-0.3-0.1-0.6-0.1s-0.6,0.1-0.9,0.3
    s-0.4,0.6-0.4,1.2v2.5h-0.6V20.6z"/>
  <path d="M134.1,14.9v-0.9h0.8v0.7c0,0.4,0,0.7-0.1,0.8c-0.1,0.2-0.3,0.4-0.6,0.5l-0.2-0.3c0.2-0.1,0.3-0.2,0.4-0.3
    c0.1-0.1,0.1-0.3,0.1-0.6L134.1,14.9L134.1,14.9z"/>
  <path d="M137.8,19.9l0.1,0.7c-0.2,0-0.4,0.1-0.6,0.1c-0.3,0-0.5,0-0.7-0.1s-0.3-0.2-0.3-0.4c-0.1-0.1-0.1-0.5-0.1-0.9v-2.8h-0.6
    v-0.6h0.6v-1.2l0.8-0.5v1.6h0.8v0.7h-0.8v2.7c0,0.2,0,0.4,0,0.4s0.1,0.1,0.1,0.2c0.1,0,0.2,0.1,0.3,0.1
    C137.6,19.9,137.6,19.9,137.8,19.9z"/>
  <path d="M26,30c-0.3,0.2-0.6,0.4-0.8,0.5c-0.3,0.1-0.6,0.2-0.9,0.2c-0.5,0-0.9-0.1-1.2-0.4c-0.3-0.2-0.4-0.6-0.4-1
    c0-0.2,0.1-0.4,0.2-0.6c0.1-0.2,0.2-0.3,0.4-0.5s0.4-0.2,0.6-0.3c0.2,0,0.4-0.1,0.7-0.1c0.6-0.1,1.1-0.2,1.4-0.3c0-0.1,0-0.2,0-0.2
    c0-0.3-0.1-0.5-0.2-0.7c-0.2-0.2-0.5-0.3-0.9-0.3s-0.6,0.1-0.8,0.2s-0.3,0.4-0.4,0.7l-0.8-0.1c0.1-0.3,0.2-0.6,0.3-0.8
    c0.2-0.2,0.4-0.4,0.7-0.5s0.7-0.2,1.1-0.2c0.4,0,0.7,0,1,0.1s0.4,0.2,0.5,0.4c0.1,0.1,0.2,0.3,0.2,0.5c0,0.1,0,0.4,0,0.7v1.1
    c0,0.7,0,1.2,0.1,1.4c0,0.2,0.1,0.4,0.2,0.6h-0.8C26.2,30.4,26,30.2,26,30z M26,28.2c-0.3,0.1-0.7,0.2-1.3,0.3
    c-0.3,0-0.6,0.1-0.7,0.2s-0.2,0.1-0.3,0.3c-0.1,0.1-0.1,0.2-0.1,0.4s0.1,0.4,0.2,0.5s0.4,0.2,0.7,0.2s0.6-0.1,0.8-0.2
    c0.2-0.1,0.4-0.3,0.5-0.5s0.1-0.4,0.1-0.8v-0.4H26z"/>
  <path d="M28.2,30.5v-4.1h-0.7v-0.6h0.7v-0.5c0-0.3,0-0.5,0.1-0.7s0.2-0.4,0.4-0.5s0.5-0.2,0.8-0.2c0.2,0,0.5,0,0.7,0.1l-0.1,0.7
    c-0.2,0-0.3,0-0.5,0s-0.4,0.1-0.5,0.2S29,25.2,29,25.6V26h0.9v0.5H29v4.1H28.2z"/>
  <path d="M30.5,30.5v-4.1h-0.7v-0.6h0.7v-0.5c0-0.3,0-0.5,0.1-0.7s0.2-0.4,0.4-0.5s0.5-0.2,0.8-0.2c0.2,0,0.5,0,0.7,0.1l-0.1,0.7
    c-0.2,0-0.3,0-0.5,0s-0.4,0.1-0.5,0.2s-0.1,0.3-0.1,0.6V26h0.9v0.5h-0.9v4.1H30.5z"/>
  <path d="M32.5,28.2c0-0.9,0.2-1.5,0.7-1.9c0.4-0.3,0.9-0.5,1.5-0.5s1.2,0.2,1.6,0.6c0.4,0.4,0.6,1,0.6,1.7c0,0.6-0.1,1.1-0.3,1.4
    c-0.2,0.3-0.4,0.6-0.8,0.8c-0.3,0.2-0.7,0.3-1.1,0.3c-0.7,0-1.2-0.2-1.6-0.6C32.8,29.5,32.5,29,32.5,28.2z M33.3,28.2
    c0,0.6,0.1,1,0.4,1.3c0.3,0.3,0.6,0.4,1,0.4s0.7-0.1,1-0.4s0.4-0.8,0.4-1.4c0-0.6-0.1-1-0.4-1.3c-0.3-0.3-0.6-0.4-1-0.4
    s-0.7,0.1-1,0.4S33.3,27.5,33.3,28.2z"/>
  <path d="M37.8,30.5v-4.7h0.7v0.7c0.2-0.3,0.3-0.5,0.5-0.7c0.2-0.1,0.3-0.2,0.5-0.2c0.3,0,0.5,0.1,0.8,0.3L40,26.6
    c-0.2-0.1-0.4-0.2-0.6-0.2c-0.2,0-0.3,0.1-0.5,0.2c-0.1,0.1-0.2,0.2-0.3,0.4c-0.1,0.3-0.1,0.6-0.1,0.9v2.4h-0.7V30.5z"/>
  <path d="M43.8,30.5V30c-0.3,0.5-0.7,0.7-1.3,0.7c-0.4,0-0.7-0.1-1-0.3s-0.6-0.5-0.7-0.9c-0.2-0.4-0.3-0.8-0.3-1.3s0.1-0.9,0.2-1.3
    c0.2-0.4,0.4-0.7,0.7-0.9c0.3-0.2,0.7-0.3,1-0.3s0.5,0.1,0.8,0.2c0.2,0.1,0.4,0.3,0.5,0.5v-2.3h0.8v6.4L43.8,30.5L43.8,30.5z
     M41.3,28.2c0,0.6,0.1,1,0.4,1.3s0.5,0.4,0.9,0.4c0.3,0,0.6-0.1,0.9-0.4c0.2-0.3,0.4-0.7,0.4-1.3s-0.1-1.1-0.4-1.4
    s-0.5-0.4-0.9-0.4s-0.6,0.1-0.9,0.4C41.5,27.2,41.3,27.5,41.3,28.2z"/>
  <path d="M50,29.9l0.1,0.7c-0.2,0-0.4,0.1-0.6,0.1c-0.3,0-0.5,0-0.7-0.1s-0.3-0.2-0.3-0.4c-0.1-0.1-0.1-0.5-0.1-0.9v-2.8h-0.6v-0.6
    h0.6v-1.2l0.8-0.5v1.6H50v0.7h-0.8v2.7c0,0.2,0,0.4,0,0.4s0.1,0.1,0.1,0.2c0.1,0,0.2,0.1,0.3,0.1C49.8,29.9,50,29.9,50,29.9z"/>
  <path d="M50.8,30.5v-6.4h0.8v2.3c0.4-0.4,0.8-0.6,1.4-0.6c0.3,0,0.6,0.1,0.9,0.2c0.3,0.1,0.4,0.3,0.5,0.6c0.1,0.2,0.2,0.6,0.2,1v3
    h-0.8v-3c0-0.4-0.1-0.7-0.3-0.9c-0.2-0.2-0.4-0.3-0.7-0.3c-0.2,0-0.5,0.1-0.7,0.2s-0.4,0.3-0.4,0.5s-0.1,0.5-0.1,0.9v2.6L50.8,30.5
    L50.8,30.5z"/>
  <path d="M59.1,29l0.8,0.1c-0.1,0.5-0.4,0.8-0.7,1.1s-0.8,0.4-1.3,0.4c-0.7,0-1.2-0.2-1.6-0.6c-0.4-0.4-0.6-1-0.6-1.8
    s0.2-1.4,0.6-1.8s0.9-0.7,1.6-0.7c0.6,0,1.1,0.2,1.5,0.6s0.6,1,0.6,1.8c0,0,0,0.1,0,0.2h-3.5c0,0.5,0.2,0.9,0.4,1.2
    c0.3,0.3,0.6,0.4,1,0.4c0.3,0,0.5-0.1,0.7-0.2S58.9,29.4,59.1,29z M56.4,27.8H59c0-0.4-0.1-0.7-0.3-0.9c-0.3-0.3-0.6-0.5-1-0.5
    s-0.7,0.1-0.9,0.4C56.7,27,56.4,27.4,56.4,27.8z"/>
  <path d="M60.8,25v-0.9h0.8V25H60.8z M60.8,30.5v-4.7h0.8v4.7H60.8z"/>
  <path d="M62.8,30.5v-4.7h0.7v0.7c0.2-0.3,0.3-0.5,0.5-0.7c0.2-0.1,0.3-0.2,0.5-0.2c0.3,0,0.5,0.1,0.8,0.3L65,26.6
    c-0.2-0.1-0.4-0.2-0.6-0.2s-0.3,0.1-0.5,0.2c-0.1,0.1-0.2,0.2-0.3,0.4c-0.1,0.3-0.1,0.6-0.1,0.9v2.4h-0.7V30.5z"/>
  <path d="M68.3,30.5v-4.7H69v0.7c0.1-0.2,0.3-0.4,0.6-0.6c0.2-0.1,0.5-0.2,0.8-0.2s0.6,0.1,0.9,0.2c0.2,0.1,0.4,0.3,0.5,0.6
    c0.4-0.5,0.8-0.8,1.4-0.8c0.5,0,0.8,0.1,1.1,0.4c0.2,0.3,0.4,0.7,0.4,1.2v3.2h-0.8v-2.9c0-0.3,0-0.5-0.1-0.7
    c-0.1-0.1-0.1-0.3-0.3-0.3s-0.3-0.2-0.5-0.2c-0.3,0-0.6,0.1-0.8,0.3c-0.2,0.2-0.3,0.6-0.3,1v2.7h-0.8v-3c0-0.4-0.1-0.6-0.2-0.8
    s-0.3-0.2-0.6-0.2c-0.2,0-0.4,0.1-0.6,0.2s-0.3,0.3-0.4,0.5s-0.1,0.6-0.1,1v2.4C69.2,30.6,68.3,30.6,68.3,30.5z"/>
  <path d="M79.1,29l0.8,0.1c-0.1,0.5-0.4,0.8-0.7,1.1s-0.8,0.4-1.3,0.4c-0.7,0-1.2-0.2-1.6-0.6c-0.4-0.4-0.6-1-0.6-1.8
    s0.2-1.4,0.6-1.8s0.9-0.7,1.6-0.7c0.6,0,1.1,0.2,1.5,0.6s0.6,1,0.6,1.8c0,0,0,0.1,0,0.2h-3.5c0,0.5,0.2,0.9,0.4,1.2
    c0.3,0.3,0.6,0.4,1,0.4c0.3,0,0.5-0.1,0.7-0.2S78.9,29.4,79.1,29z M76.4,27.8H79c0-0.4-0.1-0.7-0.3-0.9c-0.3-0.3-0.6-0.5-1-0.5
    s-0.7,0.1-0.9,0.4C76.7,27,76.4,27.4,76.4,27.8z"/>
  <path d="M83.9,30.5V30c-0.3,0.5-0.7,0.7-1.3,0.7c-0.4,0-0.7-0.1-1-0.3s-0.6-0.5-0.7-0.9c-0.2-0.4-0.3-0.8-0.3-1.3s0.1-0.9,0.2-1.3
    c0.2-0.4,0.4-0.7,0.7-0.9c0.3-0.2,0.7-0.3,1-0.3s0.5,0.1,0.8,0.2c0.2,0.1,0.4,0.3,0.5,0.5v-2.3h0.8v6.4L83.9,30.5L83.9,30.5z
     M81.4,28.2c0,0.6,0.1,1,0.4,1.3s0.5,0.4,0.9,0.4c0.3,0,0.6-0.1,0.9-0.4c0.2-0.3,0.4-0.7,0.4-1.3s-0.1-1.1-0.4-1.4
    s-0.5-0.4-0.9-0.4s-0.6,0.1-0.9,0.4C81.6,27.2,81.4,27.5,81.4,28.2z"/>
  <path d="M85.8,25v-0.9h0.8V25H85.8z M85.8,30.5v-4.7h0.8v4.7H85.8z"/>
  <path d="M90.9,28.9l0.8,0.1c-0.1,0.5-0.3,1-0.7,1.3c-0.3,0.2-0.8,0.4-1.3,0.4c-0.6,0-1.2-0.2-1.5-0.6c-0.4-0.4-0.6-1-0.6-1.8
    c0-0.5,0.1-0.9,0.3-1.3s0.4-0.7,0.8-0.9c0.3-0.2,0.7-0.3,1.1-0.3c0.5,0,0.9,0.1,1.2,0.4c0.3,0.3,0.5,0.6,0.6,1.1l-0.8,0.1
    c-0.1-0.3-0.2-0.5-0.4-0.7s-0.4-0.2-0.7-0.2c-0.4,0-0.7,0.1-1,0.4c-0.2,0.3-0.4,0.7-0.4,1.4c0,0.6,0.1,1.1,0.4,1.4s0.6,0.4,0.9,0.4
    s0.6-0.1,0.8-0.3S90.8,29.2,90.9,28.9z"/>
  <path d="M92.3,25v-0.9h0.8V25H92.3z M92.3,30.5v-4.7h0.8v4.7H92.3z"/>
  <path d="M94.3,30.5v-4.7H95v0.7c0.3-0.5,0.8-0.8,1.5-0.8c0.3,0,0.5,0.1,0.8,0.2c0.2,0.1,0.4,0.2,0.5,0.4S98,26.8,98,27
    c0,0.1,0,0.4,0,0.8v2.9h-0.8v-2.8c0-0.3,0-0.6-0.1-0.7c-0.1-0.2-0.2-0.3-0.3-0.4c-0.2-0.1-0.3-0.1-0.6-0.1c-0.3,0-0.6,0.1-0.9,0.3
    s-0.4,0.6-0.4,1.2v2.5h-0.6V30.5z"/>
  <path d="M102.6,29l0.8,0.1c-0.1,0.5-0.4,0.8-0.7,1.1s-0.8,0.4-1.3,0.4c-0.7,0-1.2-0.2-1.6-0.6c-0.4-0.4-0.6-1-0.6-1.8
    s0.2-1.4,0.6-1.8s0.9-0.7,1.6-0.7c0.6,0,1.1,0.2,1.5,0.6s0.6,1,0.6,1.8c0,0,0,0.1,0,0.2H100c0,0.5,0.2,0.9,0.4,1.2
    c0.3,0.3,0.6,0.4,1,0.4c0.3,0,0.5-0.1,0.7-0.2S102.4,29.4,102.6,29z M99.9,27.8h2.6c0-0.4-0.1-0.7-0.3-0.9c-0.3-0.3-0.6-0.5-1-0.5
    s-0.7,0.1-0.9,0.4C100.2,27,100.1,27.4,99.9,27.8z"/>
  <path d="M104.1,29.2l0.8-0.1c0,0.3,0.2,0.6,0.4,0.7c0.2,0.2,0.5,0.2,0.8,0.2c0.4,0,0.6-0.1,0.8-0.2c0.2-0.1,0.3-0.3,0.3-0.5
    s-0.1-0.3-0.2-0.4c-0.1-0.1-0.4-0.2-0.8-0.3c-0.6-0.1-1-0.3-1.2-0.4c-0.2-0.1-0.4-0.3-0.5-0.4c-0.1-0.2-0.2-0.4-0.2-0.6
    s0-0.4,0.1-0.6s0.2-0.3,0.4-0.4c0.1-0.1,0.3-0.2,0.5-0.2c0.2-0.1,0.4-0.1,0.7-0.1c0.4,0,0.7,0.1,1,0.2s0.5,0.2,0.6,0.4
    c0.1,0.2,0.2,0.4,0.3,0.7l-0.8,0.1c0-0.2-0.1-0.4-0.3-0.6c-0.2-0.1-0.4-0.2-0.7-0.2c-0.4,0-0.6,0.1-0.8,0.2s-0.2,0.3-0.2,0.4
    s0,0.2,0.1,0.3c0.1,0.1,0.2,0.2,0.3,0.2c0.1,0,0.3,0.1,0.7,0.2c0.6,0.1,0.9,0.3,1.2,0.4c0.2,0.1,0.4,0.2,0.5,0.4s0.2,0.4,0.2,0.7
    s-0.1,0.5-0.2,0.7c-0.2,0.2-0.4,0.4-0.7,0.5c-0.3,0.1-0.6,0.2-1,0.2c-0.6,0-1.1-0.1-1.4-0.4C104.3,30,104.2,29.7,104.1,29.2z"/>
  <path d="M109.1,30.5v-0.9h0.9v0.9c0,0.3-0.1,0.6-0.2,0.8s-0.3,0.4-0.6,0.5l-0.2-0.3c0.2-0.1,0.3-0.2,0.4-0.3s0.1-0.3,0.1-0.6h-0.4
    V30.5z"/>
  <path d="M115.2,30.5l-1.8-4.7h0.8l1,2.8c0.1,0.3,0.2,0.6,0.3,0.9c0.1-0.2,0.2-0.5,0.3-0.9l1-2.8h0.8l-1.8,4.7H115.2z"/>
  <path d="M118.3,25v-0.9h0.8V25H118.3z M118.3,30.5v-4.7h0.8v4.7H118.3z"/>
  <path d="M119.9,29.2l0.8-0.1c0,0.3,0.2,0.6,0.4,0.7c0.2,0.2,0.5,0.2,0.8,0.2c0.4,0,0.6-0.1,0.8-0.2c0.2-0.1,0.3-0.3,0.3-0.5
    s-0.1-0.3-0.2-0.4c-0.1-0.1-0.4-0.2-0.8-0.3c-0.6-0.1-1-0.3-1.2-0.4c-0.2-0.1-0.4-0.3-0.5-0.4c-0.1-0.2-0.2-0.4-0.2-0.6
    s0-0.4,0.1-0.6s0.2-0.3,0.4-0.4c0.1-0.1,0.3-0.2,0.5-0.2c0.2-0.1,0.4-0.1,0.7-0.1c0.4,0,0.7,0.1,1,0.2s0.5,0.2,0.6,0.4
    c0.1,0.2,0.2,0.4,0.3,0.7l-0.8,0.1c0-0.2-0.1-0.4-0.3-0.6c-0.2-0.1-0.4-0.2-0.7-0.2c-0.4,0-0.6,0.1-0.8,0.2s-0.2,0.3-0.2,0.4
    s0,0.2,0.1,0.3c0.1,0.1,0.2,0.2,0.3,0.2s0.3,0.1,0.7,0.2c0.6,0.1,0.9,0.3,1.2,0.4c0.2,0.1,0.4,0.2,0.5,0.4s0.2,0.4,0.2,0.7
    s-0.1,0.5-0.2,0.7c-0.2,0.2-0.4,0.4-0.7,0.5s-0.6,0.2-1,0.2c-0.6,0-1.1-0.1-1.4-0.4C120.1,30,119.9,29.7,119.9,29.2z"/>
  <path d="M124.6,25v-0.9h0.8V25H124.6z M124.6,30.5v-4.7h0.8v4.7H124.6z"/>
  <path d="M128.2,29.9l0.1,0.7c-0.2,0-0.4,0.1-0.6,0.1c-0.3,0-0.5,0-0.7-0.1s-0.3-0.2-0.3-0.4c-0.1-0.1-0.1-0.5-0.1-0.9v-2.8H126
    v-0.6h0.6v-1.2l0.8-0.5v1.6h0.8v0.7h-0.8v2.7c0,0.2,0,0.4,0,0.4s0.1,0.1,0.1,0.2c0.1,0,0.2,0.1,0.3,0.1
    C127.9,29.9,128.1,29.9,128.2,29.9z"/>
  <path d="M11.5,40.5L10,35.8h1.2l0.9,3.1l0.8-3.1h1.2l0.8,3.1l0.9-3.1H17l-1.5,4.7h-1.2l-0.8-3l-0.8,3H11.5z"/>
  <path d="M18.4,40.5l-1.5-4.7h1.2l0.9,3.1l0.8-3.1H21l0.8,3.1l0.9-3.1h1.1l-1.5,4.7H21l-0.8-3l-0.8,3H18.4z"/>
  <path d="M25,40.5l-1.5-4.7h1.2l0.9,3.1l0.8-3.1h1.2l0.8,3.1l0.9-3.1h1.2l-1.5,4.7h-1.2l-0.8-3l-0.8,3H25z"/>
  <path d="M31,40.5v-1.2h1.2v1.2H31z"/>
  <path d="M34.5,40.5l-1.9-4.7h1.3l0.9,2.4L35,39c0.1-0.2,0.1-0.3,0.1-0.4c0-0.1,0.1-0.3,0.1-0.4l0.9-2.4h1.3l-1.9,4.7
    C35.5,40.5,34.5,40.5,34.5,40.5z"/>
  <path d="M38,35.2v-1.1h1.2v1.1H38z M38,40.5v-4.7h1.2v4.7H38z"/>
  <path d="M40.2,35.2v-1.1h1.2v1.1H40.2z M40.2,40.5v-4.7h1.2v4.7H40.2z"/>
  <path d="M43.8,40.5l-1.9-4.7h1.3l0.9,2.4l0.3,0.8c0.1-0.2,0.1-0.3,0.1-0.4c0-0.1,0.1-0.3,0.1-0.4l0.9-2.4h1.3l-1.9,4.7
    C44.8,40.5,43.8,40.5,43.8,40.5z"/>
  <path d="M51.2,37.2L50,37.5c0-0.2-0.1-0.4-0.3-0.6c-0.1-0.1-0.3-0.2-0.6-0.2s-0.6,0.1-0.7,0.3s-0.3,0.6-0.3,1.1
    c0,0.6,0.1,0.9,0.3,1.2c0.2,0.2,0.4,0.3,0.7,0.3c0.2,0,0.4-0.1,0.6-0.2c0.1-0.1,0.3-0.4,0.3-0.7l1.2,0.2c-0.1,0.6-0.4,1-0.7,1.3
    c-0.4,0.3-0.8,0.4-1.4,0.4c-0.7,0-1.2-0.2-1.6-0.6c-0.4-0.4-0.6-1-0.6-1.8s0.2-1.4,0.6-1.8c0.4-0.4,1-0.6,1.7-0.6
    c0.6,0,1,0.1,1.4,0.4C50.8,36.4,51.2,36.8,51.2,37.2z"/>
  <path d="M51.7,38.2c0-0.4,0.1-0.8,0.3-1.2s0.5-0.7,0.9-0.9s0.8-0.3,1.2-0.3c0.7,0,1.3,0.2,1.7,0.7c0.4,0.5,0.7,1,0.7,1.7
    s-0.2,1.3-0.7,1.8c-0.5,0.5-1,0.7-1.7,0.7c-0.4,0-0.8-0.1-1.2-0.3s-0.7-0.5-0.9-0.9C51.8,39.2,51.7,38.7,51.7,38.2z M53,38.2
    c0,0.5,0.1,0.8,0.3,1.1s0.5,0.4,0.8,0.4s0.6-0.1,0.8-0.4s0.3-0.6,0.3-1.1s-0.1-0.8-0.3-1.1s-0.5-0.4-0.8-0.4s-0.6,0.1-0.8,0.4
    S53,37.8,53,38.2z"/>
  <path d="M61.4,40.5h-1.2v-2.4c0-0.5,0-0.8-0.1-1s-0.1-0.3-0.3-0.3c-0.1-0.1-0.3-0.1-0.4-0.1c-0.2,0-0.4,0.1-0.6,0.2
    c-0.2,0.1-0.3,0.3-0.3,0.5c-0.1,0.2-0.1,0.6-0.1,1.1v2.1h-1.2v-4.7h1.1v0.7c0.4-0.5,0.9-0.8,1.5-0.8c0.3,0,0.5,0,0.7,0.1
    s0.4,0.2,0.5,0.4s0.2,0.3,0.2,0.5s0.1,0.5,0.1,0.8v2.9H61.4z"/>
  <path d="M66.7,40.5h-1.2v-2.4c0-0.5,0-0.8-0.1-1s-0.1-0.3-0.3-0.3c-0.1-0.1-0.3-0.1-0.4-0.1c-0.2,0-0.4,0.1-0.6,0.2
    c-0.2,0.1-0.3,0.3-0.3,0.5c-0.1,0.2-0.1,0.6-0.1,1.1v2.1h-1.2v-4.7h1.1v0.7c0.4-0.5,0.9-0.8,1.5-0.8c0.3,0,0.5,0,0.7,0.1
    s0.4,0.2,0.5,0.4s0.2,0.3,0.2,0.5s0.1,0.5,0.1,0.8v2.9H66.7z"/>
  <path d="M70.3,39l1.2,0.2c-0.2,0.5-0.4,0.8-0.7,1c-0.3,0.2-0.8,0.4-1.3,0.4c-0.8,0-1.4-0.3-1.8-0.8c-0.3-0.4-0.5-1-0.5-1.6
    c0-0.8,0.2-1.4,0.6-1.8s0.9-0.7,1.5-0.7c0.7,0,1.2,0.2,1.6,0.7s0.6,1.2,0.6,2.1h-3.1c0,0.4,0.1,0.7,0.3,0.9
    c0.2,0.2,0.4,0.3,0.7,0.3c0.2,0,0.4-0.1,0.5-0.2S70.3,39.2,70.3,39z M70.4,37.8c0-0.4-0.1-0.6-0.3-0.8c-0.2-0.2-0.4-0.3-0.6-0.3
    c-0.3,0-0.5,0.1-0.7,0.3s-0.3,0.5-0.3,0.8H70.4z"/>
  <path d="M76.6,37.2l-1.3,0.2c0-0.2-0.1-0.4-0.3-0.6c-0.1-0.1-0.3-0.2-0.6-0.2c-0.3,0-0.6,0.1-0.7,0.3s-0.3,0.6-0.3,1.1
    c0,0.6,0.1,0.9,0.3,1.2c0.2,0.2,0.4,0.3,0.7,0.3c0.2,0,0.4-0.1,0.6-0.2c0.1-0.1,0.3-0.4,0.3-0.7l1.2,0.2c-0.1,0.6-0.4,1-0.7,1.3
    c-0.4,0.3-0.8,0.4-1.4,0.4c-0.7,0-1.2-0.2-1.6-0.6c-0.4-0.4-0.6-1-0.6-1.8s0.2-1.4,0.6-1.8c0.4-0.4,1-0.6,1.7-0.6
    c0.6,0,1,0.1,1.4,0.4C76.2,36.4,76.3,36.8,76.6,37.2z"/>
  <path d="M79.3,35.9v1h-0.8v1.9c0,0.4,0,0.6,0,0.7c0,0.1,0.1,0.1,0.1,0.2c0.1,0,0.1,0.1,0.2,0.1s0.3,0,0.5-0.1l0.1,1
    c-0.3,0.1-0.6,0.2-1,0.2c-0.2,0-0.4,0-0.6-0.1s-0.3-0.2-0.4-0.3s-0.1-0.3-0.2-0.5c0-0.1,0-0.4,0-0.9v-2h-0.6v-1h0.6v-0.9l1.2-0.7
    v1.6h0.9V35.9z"/>
  <path d="M79.9,40.5v-1.2h1.2v1.2H79.9z"/>
  <path d="M86.2,37.2l-1.2,0.2c0-0.2-0.1-0.4-0.3-0.6c-0.1-0.1-0.3-0.2-0.6-0.2c-0.3,0-0.6,0.1-0.7,0.3s-0.3,0.6-0.3,1.1
    c0,0.6,0.1,0.9,0.3,1.2c0.2,0.2,0.4,0.3,0.7,0.3c0.2,0,0.4-0.1,0.6-0.2c0.1-0.1,0.3-0.4,0.3-0.7l1.2,0.2c-0.1,0.6-0.4,1-0.7,1.3
    c-0.4,0.3-0.8,0.4-1.4,0.4c-0.7,0-1.2-0.2-1.6-0.6c-0.4-0.4-0.6-1-0.6-1.8s0.2-1.4,0.6-1.8c0.4-0.4,1-0.6,1.7-0.6
    c0.6,0,1,0.1,1.4,0.4C85.8,36.4,86.2,36.8,86.2,37.2z"/>
  <path d="M86.7,38.2c0-0.4,0.1-0.8,0.3-1.2c0.2-0.4,0.5-0.7,0.9-0.9s0.8-0.3,1.2-0.3c0.7,0,1.3,0.2,1.7,0.7s0.7,1,0.7,1.7
    s-0.2,1.3-0.7,1.8s-1,0.7-1.7,0.7c-0.4,0-0.8-0.1-1.2-0.3s-0.7-0.5-0.9-0.9C86.8,39.2,86.7,38.7,86.7,38.2z M87.9,38.2
    c0,0.5,0.1,0.8,0.3,1.1s0.5,0.4,0.8,0.4s0.6-0.1,0.8-0.4s0.3-0.6,0.3-1.1s-0.1-0.8-0.3-1.1s-0.5-0.4-0.8-0.4s-0.6,0.1-0.8,0.4
    S87.9,37.8,87.9,38.2z"/>
  <path d="M92.1,35.9h1.1v0.6c0.4-0.5,0.9-0.7,1.5-0.7c0.3,0,0.6,0.1,0.8,0.2s0.4,0.3,0.5,0.6c0.2-0.2,0.4-0.4,0.7-0.6
    s0.5-0.2,0.8-0.2s0.6,0.1,0.9,0.2c0.2,0.1,0.4,0.3,0.5,0.6c0.1,0.2,0.1,0.5,0.1,1v3h-1.2v-2.7c0-0.5,0-0.8-0.1-0.9
    c-0.1-0.2-0.3-0.3-0.5-0.3s-0.3,0.1-0.5,0.2s-0.3,0.3-0.3,0.5s-0.1,0.5-0.1,1v2.2h-1.2V38c0-0.5,0-0.7-0.1-0.9
    c0-0.1-0.1-0.2-0.2-0.3s-0.2-0.1-0.4-0.1c-0.2,0-0.4,0.1-0.5,0.2c-0.2,0.1-0.3,0.2-0.3,0.4c-0.1,0.2-0.1,0.5-0.1,1v2.3h-1.2v-4.7
    H92.1z"/>
  <path d="M102.1,38.2c0-0.9,0.2-1.5,0.7-1.9c0.4-0.3,0.9-0.5,1.5-0.5s1.2,0.2,1.6,0.6c0.4,0.4,0.6,1,0.6,1.7c0,0.6-0.1,1.1-0.3,1.4
    c-0.2,0.3-0.4,0.6-0.8,0.8s-0.7,0.3-1.1,0.3c-0.7,0-1.2-0.2-1.6-0.6C102.2,39.5,102.1,39,102.1,38.2z M102.8,38.2
    c0,0.6,0.1,1,0.4,1.3s0.6,0.4,1,0.4s0.7-0.1,1-0.4s0.4-0.8,0.4-1.4c0-0.6-0.1-1-0.4-1.3s-0.6-0.4-1-0.4s-0.7,0.1-1,0.4
    C103.1,37.2,102.8,37.5,102.8,38.2z"/>
  <path d="M107.3,40.5v-4.7h0.7v0.7c0.2-0.3,0.3-0.5,0.5-0.7c0.2-0.1,0.3-0.2,0.5-0.2c0.3,0,0.5,0.1,0.8,0.3l-0.3,0.7
    c-0.2-0.1-0.4-0.2-0.6-0.2s-0.3,0.1-0.5,0.2s-0.2,0.2-0.3,0.4c-0.1,0.3-0.1,0.6-0.1,0.9v2.4h-0.7V40.5z"/>
  <path d="M115.9,38.9l0.8,0.1c-0.1,0.5-0.3,1-0.7,1.3c-0.4,0.3-0.8,0.5-1.3,0.5c-0.6,0-1.2-0.2-1.5-0.6c-0.4-0.4-0.6-1-0.6-1.8
    c0-0.5,0.1-0.9,0.3-1.3c0.2-0.4,0.4-0.7,0.8-0.8s0.7-0.3,1.1-0.3c0.5,0,0.9,0.1,1.2,0.4c0.3,0.3,0.5,0.6,0.6,1.1l-0.8,0.1
    c-0.1-0.3-0.2-0.5-0.4-0.7s-0.4-0.2-0.7-0.2c-0.4,0-0.7,0.1-1,0.4s-0.4,0.7-0.4,1.4c0,0.6,0.1,1.1,0.4,1.4c0.2,0.3,0.6,0.4,0.9,0.4
    s0.6-0.1,0.8-0.3C115.8,39.5,115.8,39.2,115.9,38.9z"/>
  <path d="M120.4,40c-0.3,0.2-0.6,0.4-0.8,0.5c-0.3,0.1-0.6,0.2-0.9,0.2c-0.5,0-0.9-0.1-1.2-0.4s-0.4-0.6-0.4-1
    c0-0.2,0.1-0.4,0.2-0.6c0.1-0.2,0.2-0.3,0.4-0.5c0.2-0.1,0.4-0.2,0.6-0.3c0.2,0,0.4-0.1,0.7-0.1c0.6-0.1,1.1-0.2,1.4-0.3
    c0-0.1,0-0.2,0-0.2c0-0.3-0.1-0.5-0.2-0.7c-0.2-0.2-0.5-0.3-0.9-0.3s-0.6,0.1-0.8,0.2s-0.3,0.4-0.4,0.7l-0.8-0.1
    c0.1-0.3,0.2-0.6,0.3-0.8s0.4-0.4,0.7-0.5s0.7-0.2,1.1-0.2s0.7,0,1,0.1s0.4,0.2,0.5,0.4s0.2,0.3,0.2,0.5c0,0.1,0,0.4,0,0.7v1.1
    c0,0.7,0,1.2,0.1,1.4c0,0.2,0.1,0.4,0.2,0.6h-0.8C120.6,40.4,120.4,40.2,120.4,40z M120.4,38.2c-0.3,0.1-0.7,0.2-1.3,0.3
    c-0.3,0-0.6,0.1-0.7,0.2s-0.2,0.1-0.3,0.3c-0.1,0.1-0.1,0.2-0.1,0.4s0.1,0.4,0.2,0.5s0.4,0.2,0.7,0.2c0.3,0,0.6-0.1,0.8-0.2
    c0.2-0.1,0.4-0.3,0.5-0.5c0.1-0.2,0.1-0.4,0.1-0.8v-0.4H120.4z"/>
  <path d="M122.4,40.5v-6.4h0.8v6.4H122.4z"/>
  <path d="M124.4,40.5v-6.4h0.8v6.4H124.4z"/>
  <path d="M130.6,39.9l0.1,0.7c-0.2,0-0.4,0.1-0.6,0.1c-0.3,0-0.5,0-0.7-0.1s-0.3-0.2-0.3-0.4c-0.1-0.1-0.1-0.5-0.1-0.9v-2.8h-0.6
    v-0.6h0.6v-1.2l0.8-0.5v1.6h0.8v0.7h-0.8v2.7c0,0.2,0,0.4,0,0.4s0.1,0.1,0.1,0.2c0.1,0,0.2,0.1,0.3,0.1S130.4,39.9,130.6,39.9z"/>
  <path d="M131.4,40.5v-6.4h0.8v2.3c0.4-0.4,0.8-0.6,1.4-0.6c0.3,0,0.6,0.1,0.9,0.2c0.3,0.1,0.4,0.3,0.5,0.6c0.1,0.2,0.2,0.6,0.2,1v3
    h-0.8v-3c0-0.4-0.1-0.7-0.3-0.9s-0.4-0.3-0.7-0.3c-0.2,0-0.5,0.1-0.7,0.2c-0.2,0.1-0.4,0.3-0.4,0.5c-0.1,0.2-0.1,0.5-0.1,0.9v2.6
    L131.4,40.5L131.4,40.5z"/>
  <path d="M139.6,39l0.8,0.1c-0.1,0.5-0.4,0.8-0.7,1.1s-0.8,0.4-1.3,0.4c-0.7,0-1.2-0.2-1.6-0.6c-0.4-0.4-0.6-1-0.6-1.8
    s0.2-1.4,0.6-1.8s0.9-0.7,1.6-0.7c0.6,0,1.1,0.2,1.5,0.6c0.4,0.4,0.6,1,0.6,1.8c0,0,0,0.1,0,0.2H137c0,0.5,0.2,0.9,0.4,1.2
    c0.3,0.3,0.6,0.4,1,0.4c0.3,0,0.5-0.1,0.7-0.2S139.4,39.4,139.6,39z M136.9,37.8h2.6c0-0.4-0.1-0.7-0.3-0.9c-0.3-0.3-0.6-0.5-1-0.5
    s-0.7,0.1-0.9,0.4C137.1,37,137.1,37.4,136.9,37.8z"/>
  <path d="M10.8,50.5l-2.5-6.4h0.9l1.7,4.7c0.1,0.4,0.2,0.7,0.3,1.1c0.1-0.4,0.2-0.7,0.3-1.1l1.7-4.7H14l-2.5,6.4H10.8z"/>
  <path d="M14.6,45V44h0.8V45H14.6z M14.6,50.5v-4.7h0.8v4.7H14.6z"/>
  <path d="M16.6,45V44h0.8V45H16.6z M16.6,50.5v-4.7h0.8v4.7H16.6z"/>
  <path d="M20.5,50.5L18,44.1h0.9l1.7,4.7c0.1,0.4,0.2,0.7,0.3,1.1c0.1-0.4,0.2-0.7,0.3-1.1l1.7-4.7h0.9l-2.5,6.4H20.5z"/>
  <path d="M27.2,50.5v-6.4h0.9v2.6h3.3v-2.6h0.9v6.4h-0.9v-3h-3.3v3H27.2z"/>
  <path d="M36.8,49l0.8,0.1c-0.1,0.5-0.4,0.8-0.7,1.1s-0.8,0.4-1.3,0.4c-0.7,0-1.2-0.2-1.6-0.6c-0.4-0.4-0.6-1-0.6-1.8
    s0.2-1.4,0.6-1.8s0.9-0.7,1.6-0.7c0.6,0,1.1,0.2,1.5,0.6c0.4,0.4,0.6,1,0.6,1.8c0,0,0,0.1,0,0.2h-3.5c0,0.5,0.2,0.9,0.4,1.2
    c0.3,0.3,0.6,0.4,1,0.4c0.3,0,0.5-0.1,0.7-0.2S36.8,49.4,36.8,49z M34.2,47.8h2.6c0-0.4-0.1-0.7-0.3-0.9c-0.3-0.3-0.6-0.5-1-0.5
    s-0.7,0.1-0.9,0.4C34.5,47,34.2,47.4,34.2,47.8z"/>
  <path d="M41.8,50c-0.3,0.2-0.6,0.4-0.8,0.5c-0.3,0.1-0.6,0.2-0.9,0.2c-0.5,0-0.9-0.1-1.2-0.4s-0.4-0.6-0.4-1c0-0.2,0.1-0.4,0.2-0.6
    c0.1-0.2,0.2-0.3,0.4-0.5c0.2-0.1,0.4-0.2,0.6-0.3c0.2,0,0.4-0.1,0.7-0.1c0.6-0.1,1.1-0.2,1.4-0.3c0-0.1,0-0.2,0-0.2
    c0-0.3-0.1-0.5-0.2-0.7c-0.2-0.2-0.5-0.3-0.9-0.3s-0.6,0.1-0.8,0.2s-0.3,0.4-0.4,0.7l-0.8-0.1c0.1-0.3,0.2-0.6,0.3-0.8
    s0.4-0.4,0.7-0.5s0.7-0.2,1.1-0.2c0.4,0,0.7,0,1,0.1s0.4,0.2,0.5,0.4s0.2,0.3,0.2,0.5c0,0.1,0,0.4,0,0.7v1.1c0,0.7,0,1.2,0.1,1.4
    c0,0.2,0.1,0.4,0.2,0.6h-0.8C41.8,50.4,41.8,50.2,41.8,50z M41.7,48.2c-0.3,0.1-0.7,0.2-1.3,0.3c-0.3,0-0.6,0.1-0.7,0.2
    s-0.2,0.1-0.3,0.3c-0.1,0.1-0.1,0.2-0.1,0.4s0.1,0.4,0.2,0.5s0.4,0.2,0.7,0.2s0.6-0.1,0.8-0.2c0.2-0.1,0.4-0.3,0.5-0.5
    s0.1-0.4,0.1-0.8L41.7,48.2L41.7,48.2z"/>
  <path d="M43.7,50.5v-6.4h0.8v6.4H43.7z"/>
  <path d="M47.3,49.9l0.1,0.7c-0.2,0-0.4,0.1-0.6,0.1c-0.3,0-0.5,0-0.7-0.1s-0.3-0.2-0.3-0.4c-0.1-0.1-0.1-0.5-0.1-0.9v-2.8h-0.6
    v-0.6h0.6v-1.2l0.8-0.5v1.6h0.8v0.7h-0.8v2.7c0,0.2,0,0.4,0,0.4s0.1,0.1,0.1,0.2c0.1,0,0.2,0.1,0.3,0.1
    C47.2,49.9,47.2,49.9,47.3,49.9z"/>
  <path d="M48.2,50.5v-6.4H49v2.3c0.4-0.4,0.8-0.6,1.4-0.6c0.3,0,0.6,0.1,0.9,0.2c0.3,0.1,0.4,0.3,0.5,0.6c0.1,0.2,0.2,0.6,0.2,1v3
    h-0.8v-3c0-0.4-0.1-0.7-0.3-0.9c-0.1-0.2-0.3-0.3-0.7-0.3c-0.2,0-0.5,0.1-0.7,0.2C49.2,46.8,49,47,49,47.2C49,47.4,49,47.7,49,48.1
    v2.6h-0.8V50.5z"/>
  <path d="M56.2,48.9l0.8,0.1c-0.1,0.5-0.3,1-0.7,1.3c-0.4,0.3-0.8,0.5-1.3,0.5c-0.6,0-1.2-0.2-1.5-0.6c-0.4-0.4-0.6-1-0.6-1.8
    c0-0.5,0.1-0.9,0.3-1.3c0.2-0.4,0.4-0.7,0.8-0.8s0.7-0.3,1.1-0.3c0.5,0,0.9,0.1,1.2,0.4c0.3,0.3,0.5,0.6,0.6,1.1l-0.8,0.1
    c-0.1-0.3-0.2-0.5-0.4-0.7s-0.4-0.2-0.7-0.2c-0.4,0-0.7,0.1-1,0.4s-0.3,0.5-0.3,1.1c0,0.6,0.1,1.1,0.4,1.4c0.2,0.3,0.6,0.4,0.9,0.4
    c0.3,0,0.6-0.1,0.8-0.3C56.1,49.5,56.2,49.2,56.2,48.9z"/>
  <path d="M60.8,50c-0.3,0.2-0.6,0.4-0.8,0.5c-0.3,0.1-0.6,0.2-0.9,0.2c-0.5,0-0.9-0.1-1.2-0.4s-0.4-0.6-0.4-1c0-0.2,0.1-0.4,0.2-0.6
    c0.1-0.2,0.2-0.3,0.4-0.5c0.2-0.1,0.4-0.2,0.6-0.3c0.2,0,0.4-0.1,0.7-0.1c0.6-0.1,1.1-0.2,1.4-0.3c0-0.1,0-0.2,0-0.2
    c0-0.3-0.1-0.5-0.2-0.7c-0.2-0.2-0.5-0.3-0.9-0.3s-0.6,0.1-0.8,0.2s-0.3,0.4-0.4,0.7l-0.8-0.1c0.1-0.3,0.2-0.6,0.3-0.8
    s0.4-0.4,0.7-0.5s0.7-0.2,1.1-0.2s0.7,0,1,0.1s0.4,0.2,0.5,0.4s0.2,0.3,0.2,0.5c0,0.1,0,0.4,0,0.7v1.1c0,0.7,0,1.2,0.1,1.4
    c0,0.2,0.1,0.4,0.2,0.6h-0.8C60.8,50.4,60.8,50.2,60.8,50z M60.7,48.2c-0.3,0.1-0.7,0.2-1.3,0.3c-0.3,0-0.6,0.1-0.7,0.2
    s-0.2,0.1-0.3,0.3c-0.1,0.1-0.1,0.2-0.1,0.4s0.1,0.4,0.2,0.5s0.4,0.2,0.7,0.2c0.3,0,0.6-0.1,0.8-0.2c0.2-0.1,0.4-0.3,0.5-0.5
    s0.1-0.4,0.1-0.8v-0.4H60.7z"/>
  <path d="M62.7,50.5v-4.7h0.7v0.7c0.2-0.3,0.3-0.5,0.5-0.7c0.2-0.1,0.3-0.2,0.5-0.2c0.3,0,0.5,0.1,0.8,0.3l-0.3,0.7
    c-0.2-0.1-0.4-0.2-0.6-0.2s-0.3,0.1-0.5,0.2s-0.2,0.2-0.3,0.4c-0.1,0.3-0.1,0.6-0.1,0.9v2.4h-0.7V50.5z"/>
  <path d="M68.8,49l0.8,0.1c-0.1,0.5-0.4,0.8-0.7,1.1s-0.8,0.4-1.3,0.4c-0.7,0-1.2-0.2-1.6-0.6c-0.4-0.4-0.6-1-0.6-1.8
    s0.2-1.4,0.6-1.8s0.9-0.7,1.6-0.7c0.6,0,1.1,0.2,1.5,0.6c0.4,0.4,0.6,1,0.6,1.8c0,0,0,0.1,0,0.2h-3.5c0,0.5,0.2,0.9,0.4,1.2
    c0.3,0.3,0.6,0.4,1,0.4c0.3,0,0.5-0.1,0.7-0.2S68.8,49.4,68.8,49z M66.2,47.8h2.6c0-0.4-0.1-0.7-0.3-0.9c-0.3-0.3-0.6-0.5-1-0.5
    s-0.7,0.1-0.9,0.4C66.4,47,66.2,47.4,66.2,47.8z"/>
  <path d="M73.2,50.5v-6.4h2.9c0.6,0,1,0.1,1.3,0.2c0.3,0.1,0.5,0.3,0.7,0.6s0.3,0.6,0.3,1c0,0.5-0.1,0.8-0.4,1.2
    c-0.3,0.3-0.8,0.5-1.4,0.6c0.2,0.1,0.4,0.2,0.5,0.3c0.2,0.2,0.5,0.5,0.7,0.9l1.1,1.8h-1.1l-0.9-1.3c-0.2-0.4-0.5-0.7-0.6-0.9
    c-0.2-0.2-0.3-0.3-0.4-0.4c-0.1-0.1-0.3-0.1-0.4-0.2c-0.1,0-0.3,0-0.5,0h-1v2.9h-0.8V50.5z M74.2,47H76c0.4,0,0.7,0,0.9-0.1
    c0.2-0.1,0.4-0.2,0.5-0.4s0.2-0.4,0.2-0.6c0-0.3-0.1-0.6-0.3-0.8c-0.2-0.2-0.6-0.3-1-0.3h-2L74.2,47L74.2,47z"/>
  <path d="M82.8,49l0.8,0.1c-0.1,0.5-0.4,0.8-0.7,1.1s-0.8,0.4-1.3,0.4c-0.7,0-1.2-0.2-1.6-0.6c-0.4-0.4-0.6-1-0.6-1.8
    s0.2-1.4,0.6-1.8s0.9-0.7,1.6-0.7c0.6,0,1.1,0.2,1.5,0.6c0.4,0.4,0.6,1,0.6,1.8c0,0,0,0.1,0,0.2h-3.5c0,0.5,0.2,0.9,0.4,1.2
    c0.3,0.3,0.6,0.4,1,0.4c0.3,0,0.5-0.1,0.7-0.2S82.8,49.4,82.8,49z M80.2,47.8h2.6c0-0.4-0.1-0.7-0.3-0.9c-0.3-0.3-0.6-0.5-1-0.5
    s-0.7,0.1-0.9,0.4C80.4,47,80.3,47.4,80.2,47.8z"/>
  <path d="M84.3,49.2l0.8-0.1c0,0.3,0.2,0.6,0.4,0.7c0.2,0.2,0.5,0.2,0.8,0.2c0.4,0,0.6-0.1,0.8-0.2c0.2-0.1,0.3-0.3,0.3-0.5
    s-0.1-0.3-0.2-0.4c-0.1-0.1-0.4-0.2-0.8-0.3c-0.6-0.1-1-0.3-1.2-0.4c-0.2-0.1-0.4-0.3-0.5-0.4s-0.2-0.4-0.2-0.6
    c0-0.2,0-0.4,0.1-0.6c0.1-0.2,0.2-0.3,0.4-0.4c0.1-0.1,0.3-0.2,0.5-0.2s0.4-0.1,0.7-0.1c0.4,0,0.7,0.1,1,0.2
    c0.3,0.1,0.5,0.2,0.6,0.4s0.2,0.4,0.3,0.7l-0.8,0.1c0-0.2-0.1-0.4-0.3-0.6c-0.2-0.1-0.4-0.2-0.7-0.2c-0.4,0-0.6,0.1-0.8,0.2
    c-0.2,0.1-0.2,0.3-0.2,0.4c0,0.1,0,0.2,0.1,0.3s0.2,0.2,0.3,0.2c0.1,0,0.3,0.1,0.7,0.2c0.6,0.2,0.9,0.3,1.2,0.4
    c0.2,0.1,0.4,0.2,0.5,0.4s0.2,0.4,0.2,0.7s-0.1,0.5-0.2,0.7c-0.2,0.2-0.4,0.4-0.7,0.5c-0.3,0.1-0.6,0.2-1,0.2
    c-0.6,0-1.1-0.1-1.4-0.4C84.7,50,84.4,49.7,84.3,49.2z"/>
  <path d="M89.2,52.4v-6.5h0.7v0.6c0.2-0.2,0.4-0.4,0.6-0.5s0.5-0.2,0.8-0.2c0.4,0,0.8,0.1,1.1,0.3s0.5,0.5,0.7,0.9s0.2,0.8,0.2,1.2
    c0,0.5-0.1,0.9-0.3,1.3c-0.2,0.4-0.4,0.7-0.7,0.9s-0.7,0.3-1,0.3s-0.5-0.1-0.7-0.2S90.1,50.2,90,50v2.3
    C90,52.3,89.2,52.3,89.2,52.4z M89.9,48.2c0,0.6,0.1,1,0.4,1.3s0.5,0.4,0.9,0.4s0.7-0.1,0.9-0.4c0.2-0.3,0.4-0.8,0.4-1.4
    c0-0.6-0.1-1-0.4-1.3c-0.2-0.3-0.5-0.4-0.9-0.4c-0.3,0-0.6,0.2-0.9,0.5C90.1,47.2,89.9,47.7,89.9,48.2z"/>
  <path d="M93.8,48.2c0-0.9,0.2-1.5,0.7-1.9c0.4-0.3,0.9-0.5,1.5-0.5s1.2,0.2,1.6,0.6c0.4,0.4,0.6,1,0.6,1.7c0,0.6-0.1,1.1-0.3,1.4
    c-0.2,0.3-0.4,0.6-0.8,0.8s-0.7,0.3-1.1,0.3c-0.7,0-1.2-0.2-1.6-0.6C94.1,49.5,93.8,49,93.8,48.2z M94.8,48.2c0,0.6,0.1,1,0.4,1.3
    s0.6,0.4,1,0.4s0.7-0.1,1-0.4s0.4-0.8,0.4-1.4c0-0.6-0.1-1-0.4-1.3s-0.6-0.4-1-0.4s-0.7,0.1-1,0.4C94.8,47.2,94.8,47.5,94.8,48.2z"
    />
  <path d="M99.2,50.5v-4.7h0.7v0.7c0.3-0.5,0.8-0.8,1.5-0.8c0.3,0,0.5,0.1,0.8,0.2c0.2,0.1,0.4,0.2,0.5,0.4s0.2,0.4,0.2,0.6
    c0,0.1,0,0.4,0,0.8v2.9H102v-2.8c0-0.3,0-0.6-0.1-0.7c-0.1-0.2-0.2-0.3-0.3-0.4s-0.3-0.1-0.6-0.1c-0.3,0-0.6,0.1-0.9,0.3
    c-0.2,0.2-0.4,0.6-0.4,1.2v2.5h-0.6V50.5z"/>
  <path d="M103.8,49.2l0.8-0.1c0,0.3,0.2,0.6,0.4,0.7c0.2,0.2,0.5,0.2,0.8,0.2c0.4,0,0.6-0.1,0.8-0.2c0.2-0.1,0.3-0.3,0.3-0.5
    s-0.1-0.3-0.2-0.4c-0.1-0.1-0.4-0.2-0.8-0.3c-0.6-0.1-1-0.3-1.2-0.4c-0.2-0.1-0.4-0.3-0.5-0.4s-0.2-0.4-0.2-0.6
    c0-0.2,0-0.4,0.1-0.6c0.1-0.2,0.2-0.3,0.4-0.4c0.1-0.1,0.3-0.2,0.5-0.2s0.4-0.1,0.7-0.1c0.4,0,0.7,0.1,1,0.2
    c0.3,0.1,0.5,0.2,0.6,0.4s0.2,0.4,0.3,0.7l-0.8,0.1c0-0.2-0.1-0.4-0.3-0.6c-0.2-0.1-0.4-0.2-0.7-0.2c-0.4,0-0.6,0.1-0.8,0.2
    c-0.2,0.1-0.2,0.3-0.2,0.4c0,0.1,0,0.2,0.1,0.3s0.2,0.2,0.3,0.2c0.1,0,0.3,0.1,0.7,0.2c0.6,0.2,0.9,0.3,1.2,0.4
    c0.2,0.1,0.4,0.2,0.5,0.4s0.2,0.4,0.2,0.7s-0.1,0.5-0.2,0.7c-0.2,0.2-0.4,0.4-0.7,0.5c-0.3,0.1-0.6,0.2-1,0.2
    c-0.6,0-1.1-0.1-1.4-0.4C104.2,50,103.9,49.7,103.8,49.2z"/>
  <path d="M111.8,49l0.8,0.1c-0.1,0.5-0.4,0.8-0.7,1.1s-0.8,0.4-1.3,0.4c-0.7,0-1.2-0.2-1.6-0.6c-0.4-0.4-0.6-1-0.6-1.8
    s0.2-1.4,0.6-1.8s0.9-0.7,1.6-0.7c0.6,0,1.1,0.2,1.5,0.6c0.4,0.4,0.6,1,0.6,1.8c0,0,0,0.1,0,0.2h-3.5c0,0.5,0.2,0.9,0.4,1.2
    c0.3,0.3,0.6,0.4,1,0.4c0.3,0,0.5-0.1,0.7-0.2S111.8,49.4,111.8,49z M109.2,47.8h2.6c0-0.4-0.1-0.7-0.3-0.9c-0.3-0.3-0.6-0.5-1-0.5
    s-0.7,0.1-0.9,0.4C109.4,47,109.3,47.4,109.2,47.8z"/>
  <path d="M120.9,48.2l0.8,0.2c-0.2,0.7-0.5,1.2-1,1.6s-1,0.6-1.7,0.6s-1.3-0.1-1.7-0.4c-0.4-0.3-0.8-0.7-1-1.2s-0.3-1.1-0.3-1.7
    c0-0.7,0.1-1.3,0.4-1.8s0.6-0.9,1.1-1.1c0.5-0.3,1-0.4,1.6-0.4s1.2,0.2,1.6,0.5s0.7,0.8,0.9,1.4l-0.8,0.2c-0.1-0.5-0.4-0.8-0.7-1
    s-0.6-0.3-1.1-0.3s-0.9,0.1-1.2,0.4c-0.3,0.2-0.6,0.6-0.7,1S117,47,117,47.5c0,0.5,0.1,1,0.2,1.4c0.2,0.4,0.4,0.7,0.7,0.9
    c0.3,0.2,0.7,0.3,1.1,0.3c0.5,0,0.9-0.1,1.2-0.4C120.6,49.2,120.8,48.8,120.9,48.2z"/>
  <path d="M125.9,49l0.8,0.1c-0.1,0.5-0.4,0.8-0.7,1.1s-0.8,0.4-1.3,0.4c-0.7,0-1.2-0.2-1.6-0.6c-0.4-0.4-0.6-1-0.6-1.8
    s0.2-1.4,0.6-1.8s0.9-0.7,1.6-0.7c0.6,0,1.1,0.2,1.5,0.6c0.4,0.4,0.6,1,0.6,1.8c0,0,0,0.1,0,0.2h-3.5c0,0.5,0.2,0.9,0.4,1.2
    c0.3,0.3,0.6,0.4,1,0.4c0.3,0,0.5-0.1,0.7-0.2S125.8,49.4,125.9,49z M123.4,47.8h2.6c0-0.4-0.1-0.7-0.3-0.9c-0.3-0.3-0.6-0.5-1-0.5
    s-0.7,0.1-0.9,0.4C123.4,47,123.4,47.4,123.4,47.8z"/>
  <path d="M127.8,50.5v-4.7h0.7v0.7c0.3-0.5,0.8-0.8,1.5-0.8c0.3,0,0.5,0.1,0.8,0.2c0.2,0.1,0.4,0.2,0.5,0.4s0.2,0.4,0.2,0.6
    c0,0.1,0,0.4,0,0.8v2.9h-0.7v-2.8c0-0.3,0-0.6-0.1-0.7c-0.1-0.2-0.2-0.3-0.3-0.4s-0.4-0.3-0.6-0.3c-0.3,0-0.6,0.1-0.9,0.3
    c-0.2,0.2-0.4,0.6-0.4,1.2v2.5L127.8,50.5L127.8,50.5z"/>
  <path d="M134.4,49.9l0.1,0.7c-0.2,0-0.4,0.1-0.6,0.1c-0.3,0-0.5,0-0.7-0.1s-0.3-0.2-0.3-0.4c-0.1-0.1-0.1-0.5-0.1-0.9v-2.8h-0.6
    v-0.6h0.6v-1.2l0.8-0.5v1.6h0.8v0.7h-0.8v2.7c0,0.2,0,0.4,0,0.4s0.1,0.1,0.1,0.2c0.1,0,0.2,0.1,0.3,0.1
    C134.1,49.9,134.4,49.9,134.4,49.9z"/>
  <path d="M138.4,49l0.8,0.1c-0.1,0.5-0.4,0.8-0.7,1.1s-0.8,0.4-1.3,0.4c-0.7,0-1.2-0.2-1.6-0.6c-0.4-0.4-0.6-1-0.6-1.8
    s0.2-1.4,0.6-1.8s0.9-0.7,1.6-0.7c0.6,0,1.1,0.2,1.5,0.6c0.4,0.4,0.6,1,0.6,1.8c0,0,0,0.1,0,0.2h-3.6c0,0.5,0.2,0.9,0.4,1.2
    c0.3,0.3,0.6,0.4,1,0.4c0.3,0,0.5-0.1,0.7-0.2S138.2,49.4,138.4,49z M135.9,47.8h2.6c0-0.4-0.1-0.7-0.3-0.9c-0.3-0.3-0.6-0.5-1-0.5
    s-0.7,0.1-0.9,0.4C135.9,47,135.9,47.4,135.9,47.8z"/>
  <path d="M140.2,50.5v-4.7h0.7v0.7c0.2-0.3,0.3-0.5,0.5-0.7s0.3-0.2,0.5-0.2c0.3,0,0.5,0.1,0.8,0.3l-0.3,0.7
    c-0.2-0.1-0.4-0.2-0.6-0.2c-0.2,0-0.3,0.1-0.5,0.2c-0.1,0.1-0.2,0.2-0.3,0.4c-0.1,0.3-0.1,0.6-0.1,0.9v2.4h-0.7V50.5z"/>
  <path d="M48.2,60.5H47v-4.7c-0.5,0.4-1,0.7-1.6,0.9v-1.1c0.3-0.1,0.7-0.3,1.1-0.6s0.6-0.6,0.8-1h1L48.2,60.5L48.2,60.5z"/>
  <path d="M50.2,58.8v-1.2h2.4v1.2H50.2z"/>
  <path d="M54,57c-0.3-0.1-0.6-0.3-0.7-0.6c-0.1-0.2-0.2-0.5-0.2-0.8c0-0.5,0.2-0.9,0.5-1.2S54.4,54,55,54c0.6,0,1.1,0.2,1.4,0.5
    c0.3,0.3,0.5,0.7,0.5,1.2c0,0.3-0.1,0.6-0.2,0.8s-0.4,0.4-0.7,0.5c0.4,0.1,0.6,0.4,0.8,0.6c0.2,0.3,0.3,0.6,0.3,1
    c0,0.6-0.2,1.1-0.6,1.5s-0.9,0.6-1.5,0.6s-1.1-0.2-1.5-0.5c-0.5-0.4-0.7-0.9-0.7-1.5c0-0.3,0.1-0.7,0.3-1S53.8,57.2,54,57z
     M54.2,58.5c0,0.3,0.1,0.6,0.3,0.8s0.4,0.3,0.7,0.3s0.5-0.1,0.6-0.3c0.2-0.2,0.3-0.4,0.3-0.8c0-0.3-0.1-0.5-0.3-0.7
    s-0.4-0.3-0.6-0.3c-0.3,0-0.5,0.1-0.7,0.3S54.2,58.4,54.2,58.5z M54.3,55.8c0,0.2,0.1,0.4,0.2,0.6c0.1,0.1,0.3,0.2,0.6,0.2
    c0.2,0,0.4-0.1,0.6-0.2c0.1-0.1,0.2-0.3,0.2-0.6c0-0.2-0.1-0.4-0.2-0.6S55.4,55,55.1,55c-0.2,0-0.4,0.1-0.6,0.2
    S54.3,55.5,54.3,55.8z"/>
  <path d="M58.1,55.4v-1.1h4.2v0.9c-0.3,0.3-0.7,0.8-1.1,1.5c-0.4,0.6-0.6,1.3-0.8,2c-0.2,0.7-0.3,1.4-0.3,1.9h-1.2
    c0-0.9,0.2-1.8,0.6-2.7c0.3-0.9,0.8-1.8,1.4-2.5C60.8,55.4,58.1,55.4,58.1,55.4z"/>
  <path d="M63.1,55.4v-1.1h4.2v0.9c-0.3,0.3-0.7,0.8-1.1,1.5c-0.4,0.6-0.6,1.3-0.8,2c-0.2,0.7-0.3,1.4-0.3,1.9h-1.2
    c0-0.9,0.2-1.8,0.6-2.7c0.3-0.9,0.8-1.8,1.4-2.5C65.8,55.4,63.1,55.4,63.1,55.4z"/>
  <path d="M68.2,58.8v-1.2h2.4v1.2H68.2z"/>
  <path d="M72.2,57c-0.3-0.1-0.6-0.3-0.7-0.6c-0.1-0.2-0.2-0.5-0.2-0.8c0-0.5,0.2-0.9,0.5-1.2s0.8-0.5,1.4-0.5s1.1,0.2,1.4,0.5
    s0.5,0.7,0.5,1.2c0,0.3-0.1,0.6-0.2,0.8s-0.4,0.4-0.7,0.5c0.4,0.1,0.6,0.4,0.8,0.6c0.2,0.3,0.3,0.6,0.3,1c0,0.6-0.2,1.1-0.6,1.5
    s-0.9,0.6-1.5,0.6s-1.1-0.2-1.5-0.5c-0.5-0.4-0.7-0.9-0.7-1.5c0-0.3,0.1-0.7,0.3-1S71.8,57.2,72.2,57z M72.2,58.5
    c0,0.3,0.1,0.6,0.3,0.8c0.2,0.2,0.4,0.3,0.7,0.3c0.3,0,0.5-0.1,0.6-0.3c0.2-0.2,0.3-0.4,0.3-0.8c0-0.3-0.1-0.5-0.3-0.7
    s-0.4-0.3-0.6-0.3c-0.3,0-0.5,0.1-0.7,0.3C72.3,58,72.2,58.4,72.2,58.5z M72.3,55.8c0,0.2,0.1,0.4,0.2,0.6c0.1,0.1,0.3,0.2,0.6,0.2
    c0.2,0,0.4-0.1,0.6-0.2c0.1-0.1,0.2-0.3,0.2-0.6c0-0.2-0.1-0.4-0.2-0.6S73.4,55,73.1,55c-0.2,0-0.4,0.1-0.6,0.2
    S72.3,55.5,72.3,55.8z"/>
  <path d="M78.4,60.5v-1.3h-2.6v-1.1l2.8-4.1h1v4.1h0.8v1.1h-0.8v1.3H78.4z M78.4,58.2V56l-1.5,2.2H78.4z"/>
  <path d="M83.4,60.5v-1.3h-2.6v-1.1l2.8-4.1h1v4.1h0.8v1.1h-0.8v1.3H83.4z M83.4,58.2V56l-1.5,2.2H83.4z"/>
  <path d="M86.2,58.8v-1.2h2.4v1.2H86.2z"/>
  <path d="M90.2,57c-0.3-0.1-0.6-0.3-0.7-0.6c-0.1-0.2-0.2-0.5-0.2-0.8c0-0.5,0.2-0.9,0.5-1.2s0.8-0.5,1.4-0.5s1.1,0.2,1.4,0.5
    s0.5,0.7,0.5,1.2c0,0.3-0.1,0.6-0.2,0.8s-0.4,0.4-0.7,0.5c0.4,0.1,0.6,0.4,0.8,0.6c0.2,0.3,0.3,0.6,0.3,1c0,0.6-0.2,1.1-0.6,1.5
    s-0.9,0.6-1.5,0.6s-1.1-0.2-1.5-0.5c-0.5-0.4-0.7-0.9-0.7-1.5c0-0.3,0.1-0.7,0.3-1S89.8,57.2,90.2,57z M90.2,58.5
    c0,0.3,0.1,0.6,0.3,0.8c0.2,0.2,0.4,0.3,0.7,0.3c0.3,0,0.5-0.1,0.6-0.3c0.2-0.2,0.3-0.4,0.3-0.8c0-0.3-0.1-0.5-0.3-0.7
    s-0.4-0.3-0.6-0.3c-0.3,0-0.5,0.1-0.7,0.3C90.3,58,90.2,58.4,90.2,58.5z M90.3,55.8c0,0.2,0.1,0.4,0.2,0.6c0.1,0.1,0.3,0.2,0.6,0.2
    c0.2,0,0.4-0.1,0.6-0.2c0.1-0.1,0.2-0.3,0.2-0.6c0-0.2-0.1-0.4-0.2-0.6S91.4,55,91.1,55c-0.2,0-0.4,0.1-0.6,0.2
    S90.3,55.5,90.3,55.8z"/>
  <path d="M95.2,57c-0.3-0.1-0.6-0.3-0.7-0.6c-0.1-0.2-0.2-0.5-0.2-0.8c0-0.5,0.2-0.9,0.5-1.2s0.8-0.5,1.4-0.5s1.1,0.2,1.4,0.5
    s0.5,0.7,0.5,1.2c0,0.3-0.1,0.6-0.2,0.8s-0.4,0.4-0.7,0.5c0.4,0.1,0.6,0.4,0.8,0.6c0.2,0.3,0.3,0.6,0.3,1c0,0.6-0.2,1.1-0.6,1.5
    s-0.9,0.6-1.5,0.6s-1.1-0.2-1.5-0.5c-0.5-0.4-0.7-0.9-0.7-1.5c0-0.3,0.1-0.7,0.3-1S94.8,57.2,95.2,57z M95.2,58.5
    c0,0.3,0.1,0.6,0.3,0.8c0.2,0.2,0.4,0.3,0.7,0.3c0.3,0,0.5-0.1,0.6-0.3c0.2-0.2,0.3-0.4,0.3-0.8c0-0.3-0.1-0.5-0.3-0.7
    s-0.4-0.3-0.6-0.3c-0.3,0-0.5,0.1-0.7,0.3C95.3,58,95.2,58.4,95.2,58.5z M95.3,55.8c0,0.2,0.1,0.4,0.2,0.6c0.1,0.1,0.3,0.2,0.6,0.2
    c0.2,0,0.4-0.1,0.6-0.2c0.1-0.1,0.2-0.3,0.2-0.6c0-0.2-0.1-0.4-0.2-0.6S96.4,55,96.1,55c-0.2,0-0.4,0.1-0.6,0.2
    S95.3,55.5,95.3,55.8z"/>
  <path d="M99.1,55.4v-1.1h4.2v0.9c-0.3,0.3-0.7,0.8-1.1,1.5c-0.4,0.6-0.6,1.3-0.8,2c-0.2,0.7-0.3,1.4-0.3,1.9h-1.2
    c0-0.9,0.2-1.8,0.6-2.7c0.3-0.9,0.8-1.8,1.4-2.5C101.8,55.4,99.1,55.4,99.1,55.4z"/>
  <path d="M108.2,59.4v1.1h-4.3c0-0.4,0.2-0.8,0.4-1.2c0.2-0.4,0.7-0.9,1.4-1.5c0.6-0.5,0.9-0.9,1-1.1c0.2-0.3,0.3-0.5,0.3-0.8
    s-0.1-0.5-0.2-0.6s-0.4-0.2-0.6-0.2c-0.3,0-0.5,0.1-0.6,0.2c-0.2,0.2-0.2,0.4-0.3,0.8l-1.2-0.1c0.1-0.7,0.3-1.2,0.7-1.5
    c0.4-0.3,0.9-0.4,1.5-0.4s1.1,0.2,1.5,0.5s0.5,0.8,0.5,1.3c0,0.3-0.1,0.6-0.2,0.8c-0.1,0.3-0.3,0.5-0.5,0.8
    c-0.1,0.2-0.4,0.5-0.8,0.8s-0.6,0.6-0.7,0.7c-0.1,0.1-0.2,0.2-0.3,0.3h2.4V59.4z"/>
</g>
<text transform="matrix(1 0 0 1 262.1729 27.3397)" class="st3 st4 st5"> </text>
<path class="st6" d="M178.1,48h0.4l7.2-16.6h-1.8l-5.6,12.8l-5.5-12.8h-1.8L178.1,48z M169.4,33.2c-0.7,0-1.3,0.6-1.3,1.3
  s0.6,1.3,1.3,1.3s1.3-0.6,1.3-1.3C170.6,33.7,170.1,33.2,169.4,33.2 M168.6,48h1.6V37.4h-1.6V48z M165.6,33.2
  c-0.7,0-1.3,0.6-1.3,1.3s0.6,1.3,1.3,1.3s1.3-0.6,1.3-1.3C166.9,33.7,166.4,33.2,165.6,33.2 M164.9,48h1.6V37.4h-1.6V48z M156.1,48
  h0.4l7.2-16.6h-1.8l-5.6,12.8l-5.5-12.8h-1.8L156.1,48z"/>
<path class="st6" d="M200.4,18.5c5,1.9,10.4,6.5,10.7,14.9h-2.5c-0.3-6.6-4.2-11.4-8.9-13.5c-8.2-3.6-20.5,0.8-21,13.4h-0.3
  C178.6,20.7,190.9,14.8,200.4,18.5"/>
<path class="st7" d="M219.4,42c0-1.8,0-2.9,1-4c0.6-0.7,1.6-1.1,2.8-1.1c1.6,0,2.8,0.7,3.4,2c0.3,0.7,0.3,1.8,0.3,3.1v6h1.7v-6.4
  c0-4.2-1.9-6.2-5.4-6.2s-5.4,2.1-5.4,6.2V48h1.7v-6H219.4z"/>
<path class="st7" d="M244.1,43c-0.7-2.5,0.1-4.4,2-5.5c1.8-1.1,4-1.1,5.9,0.8L244.1,43z M254.4,38.7c-2.2-3.5-5.9-4.2-8.9-2.4
  c-3.3,2-3.8,6-2.1,8.9c1.7,2.8,5.3,4.3,8.9,2.2c2.3-1.4,3.3-3.5,3.1-6.2l-1.5,0.1c0,1.7-0.3,3.6-2.5,5c-2.3,1.4-5,0.6-6.5-1.8
  L254.4,38.7z"/>
<path class="st7" d="M202.4,34.5c-1.6-2.3-4.2-3.5-7.3-3.5c-5.2,0-9,3.7-9,8.6s3.4,8.8,9,8.8c3,0,5.6-1.1,7.3-3.3l-1.3-1
  c-1.6,1.8-3.5,2.8-5.8,2.8c-4.2,0-7.3-3-7.3-7.1c0-4.2,3.3-7.2,7.2-7.2c2.4,0,4.5,0.9,5.9,2.9L202.4,34.5"/>
<path class="st7" d="M209.9,37c2.6,0,4.8,2.3,4.8,5s-2,4.9-4.8,4.9s-4.8-2.2-4.8-4.9S207.1,37,209.9,37 M209.9,35.5
  c-3.7,0-6.4,3-6.4,6.5s2.7,6.4,6.4,6.4s6.4-2.9,6.4-6.4C216.2,38.4,213.6,35.5,209.9,35.5"/>
<polygon class="st7" points="270.2,31.5 270.2,48 271.9,48 271.9,37.2 274.4,37.2 274.4,35.8 271.9,35.8 271.9,31.5 "/>
<path class="st7" d="M267.1,44.8c-1.2,1.4-2.6,2.2-4.4,2.2c-3.2,0-5.2-2.3-5.2-5c0-2.6,2.1-4.9,5.2-4.9c1.9,0,3.4,0.7,4.4,2.1
  l1.3-0.8c-1.1-1.9-3.3-2.9-5.6-2.9c-4.1,0-6.9,3-6.9,6.6c0,3.4,2.7,6.3,6.8,6.3c2.5,0,4.6-0.9,5.8-2.8L267.1,44.8z"/>
<path class="st7" d="M232.1,42c0-1.8,0-2.9,1-4c0.6-0.7,1.6-1.1,2.8-1.1c1.6,0,2.8,0.7,3.4,2c0.3,0.7,0.3,1.8,0.3,3.1v6h1.7v-6.4
  c0-4.2-1.9-6.2-5.4-6.2s-5.4,2.1-5.4,6.2V48h1.7v-6H232.1z"/>
<g>
  <path class="st7" d="M275.2,31.8h-0.5v1.4h-0.4v-1.4h-0.5v-0.3h1.4V31.8z M277.5,33.2h-0.4V32l0,0l-0.4,1.2h-0.3L276,32l0,0v1.2
    h-0.4v-1.7h0.6l0.4,1.1l0.4-1.1h0.6v1.7H277.5z"/>
</g>
</svg>
