<?xml version="1.0" encoding="utf-8"?>
<!-- Generator: Adobe Illustrator 19.2.1, SVG Export Plug-In . SVG Version: 6.00 Build 0)  -->
<svg version="1.1" id="Layer_1" xmlns="http://www.w3.org/2000/svg" xmlns:xlink="http://www.w3.org/1999/xlink" x="0px" y="0px"
   viewBox="0 0 257.5 221.9" style="enable-background:new 0 0 257.5 221.9;" xml:space="preserve">
<style type="text/css">
  .st0{fill:#E31837;}
</style>
<rect x="4.7" y="219.9" class="st0" width="247.2" height="2.1"/>
<polygon class="st0" points="57.5,169.9 96,63 75.1,63 47.8,139 20.9,63 0,63 37.9,169.9 "/>
<path class="st0" d="M120.8,71.6c-2.3-2.3-5-3.4-8.1-3.4c-3.2,0-5.9,1.1-8.1,3.4c-2.2,2.3-3.4,5-3.4,8.1c0,3.3,1.1,6.1,3.4,8.4
  c2.3,2.3,5,3.5,8.2,3.5c3.1,0,5.8-1.1,8-3.4c2.2-2.3,3.4-5,3.4-8.2C124.2,76.7,123.1,73.9,120.8,71.6z"/>
<rect x="103.6" y="97.9" class="st0" width="18.1" height="72.1"/>
<path class="st0" d="M151.4,71.6c-2.3-2.3-5-3.4-8.1-3.4c-3.2,0-5.9,1.1-8.1,3.4c-2.2,2.3-3.4,5-3.4,8.1c0,3.3,1.1,6.1,3.4,8.4
  c2.3,2.3,5,3.5,8.2,3.5c3.1,0,5.8-1.1,8-3.4c2.2-2.3,3.4-5,3.4-8.2C154.8,76.7,153.7,73.9,151.4,71.6z"/>
<rect x="134.2" y="97.9" class="st0" width="18.1" height="72.1"/>
<polygon class="st0" points="182.4,63 161.5,63 199.3,169.9 219,169.9 257.5,63 236.6,63 209.3,139 "/>
<path class="st0" d="M156,12c22.7,10,41.3,32.8,42.8,64.5h12c-1.4-40.4-27.5-62.4-51.5-71.5c-45.5-17.2-104,10.5-105.6,71.4h1.7
  C57.7,15.8,116.8-5.3,156,12z"/>
<polygon class="st0" points="10.6,197.7 20.8,197.7 20.8,211.1 26.6,211.1 26.6,180.6 20.8,180.6 20.8,192.1 10.6,192.1 10.6,180.6 
  4.7,180.6 4.7,211.1 10.6,211.1 "/>
<path class="st0" d="M56.9,200.4c0-3.7-1.1-6.7-3.3-9c-2.2-2.3-5.1-3.4-8.7-3.4c-3.3,0-6.1,1.1-8.4,3.4c-2.2,2.3-3.3,5.1-3.3,8.6
  c0,3.4,1.1,6.1,3.3,8.4c2.2,2.2,5.1,3.3,8.6,3.3c2.3,0,4.2-0.4,5.9-1.2c1.7-0.8,3.1-2.1,4.3-3.8l-4.8-2.2c-1.5,1.5-3.3,2.2-5.5,2.2
  c-1.8,0-3.2-0.5-4.4-1.4c-1.1-1-1.8-2.2-2.1-3.8h18.2L56.9,200.4z M38.9,197c0.6-1.4,1.3-2.3,2.1-2.9c1.2-0.9,2.6-1.3,4.2-1.3
  c1.5,0,2.7,0.4,3.9,1.2c1.1,0.8,1.8,1.8,2.2,3H38.9z"/>
<path class="st0" d="M86.1,211.1v-22.5h-5.6v2.5c-1-1-2.1-1.8-3.3-2.3c-1.2-0.5-2.5-0.8-3.8-0.8c-2.9,0-5.4,1.1-7.5,3.3
  c-2.1,2.2-3.1,5.1-3.1,8.5c0,3.4,1.1,6.2,3.2,8.4c2.1,2.3,4.6,3.4,7.5,3.4c1.3,0,2.5-0.2,3.6-0.7c1.1-0.5,2.2-1.2,3.3-2.3v2.4H86.1z
   M79,204.7c-1.2,1.2-2.6,1.9-4.4,1.9c-1.7,0-3.2-0.6-4.3-1.9c-1.2-1.3-1.8-2.9-1.8-4.8c0-1.9,0.6-3.5,1.7-4.8
  c1.2-1.2,2.6-1.9,4.3-1.9c1.8,0,3.3,0.6,4.4,1.8c1.2,1.2,1.8,2.8,1.8,4.8C80.7,201.8,80.1,203.4,79,204.7z"/>
<rect x="94" y="179.9" class="st0" width="5.6" height="31.2"/>
<polygon class="st0" points="116,211.1 116,193.5 119.3,193.5 119.3,188.6 116,188.6 116,180.3 110.3,180.3 110.3,188.6 
  107.4,188.6 107.4,193.5 110.3,193.5 110.3,211.1 "/>
<path class="st0" d="M146.9,211.1v-14.9c0-2.6-0.7-4.6-2-5.9c-1.5-1.5-3.4-2.3-5.6-2.3c-1.1,0-2.3,0.2-3.4,0.7
  c-1.1,0.5-2.2,1.2-3.3,2.1v-11h-5.6v31.2h5.6V202c0-2.4,0.1-4,0.2-4.6c0.3-1.3,0.9-2.3,1.7-3.1c0.8-0.8,1.8-1.1,2.9-1.1
  c0.9,0,1.6,0.2,2.2,0.7c0.6,0.5,1,1.1,1.3,2.1c0.2,0.9,0.4,2.7,0.4,5.3v9.9H146.9z"/>
<path class="st0" d="M165.7,193.3c1.2,0,2.2,0.2,3,0.5c0.9,0.4,1.7,1,2.6,1.9l4.7-2.6c-1.1-1.6-2.6-2.9-4.4-3.8
  c-1.8-0.9-3.8-1.3-6-1.3c-2.4,0-4.6,0.5-6.6,1.6c-2,1-3.5,2.5-4.6,4.3c-1.1,1.8-1.6,3.8-1.6,6c0,3.1,1.1,5.9,3.4,8.2
  c2.2,2.3,5.3,3.5,9.3,3.5c4.4,0,7.8-1.6,10.2-4.7l-4.4-3.1c-1.4,1.7-3.4,2.6-5.9,2.6c-2,0-3.7-0.6-4.9-1.8c-1.3-1.2-1.9-2.8-1.9-4.7
  c0-2,0.6-3.6,2-4.8C161.9,193.9,163.6,193.3,165.7,193.3z"/>
<path class="st0" d="M204,211.1v-22.5h-5.6v2.5c-1-1-2.1-1.8-3.3-2.3c-1.2-0.5-2.5-0.8-3.8-0.8c-2.9,0-5.4,1.1-7.5,3.3
  c-2.1,2.2-3.1,5.1-3.1,8.5c0,3.4,1.1,6.2,3.2,8.4c2.1,2.3,4.6,3.4,7.5,3.4c1.3,0,2.5-0.2,3.6-0.7c1.1-0.5,2.2-1.2,3.3-2.3v2.4H204z
   M196.9,204.7c-1.2,1.2-2.6,1.9-4.4,1.9c-1.7,0-3.2-0.6-4.3-1.9c-1.2-1.3-1.8-2.9-1.8-4.8c0-1.9,0.6-3.5,1.7-4.8
  c1.2-1.2,2.6-1.9,4.3-1.9c1.8,0,3.3,0.6,4.4,1.8c1.2,1.2,1.8,2.8,1.8,4.8C198.6,201.8,198,203.4,196.9,204.7z"/>
<path class="st0" d="M221,192.9c0.4,0,1,0.2,1.6,0.5l1.8-4.9c-0.8-0.4-1.6-0.6-2.3-0.6c-1,0-2,0.3-2.8,0.9c-0.9,0.6-1.6,1.4-2.1,2.5
  v-2.8h-4.9v22.5h5.6V202l0-1.1c0-3.1,0.3-5.3,0.9-6.3C219.4,193.5,220.1,192.9,221,192.9z"/>
<path class="st0" d="M240,188c-3.3,0-6.1,1.1-8.4,3.4c-2.2,2.3-3.3,5.1-3.3,8.6c0,3.4,1.1,6.1,3.3,8.4c2.2,2.2,5.1,3.3,8.6,3.3
  c2.3,0,4.2-0.4,5.9-1.2c1.7-0.8,3.1-2.1,4.3-3.8l-4.8-2.2c-1.5,1.5-3.3,2.2-5.5,2.2c-1.8,0-3.2-0.5-4.4-1.4c-1.1-1-1.8-2.2-2.1-3.8
  H252l0-1.1c0-3.7-1.1-6.7-3.3-9C246.4,189.1,243.5,188,240,188z M234,197c0.6-1.4,1.3-2.3,2.1-2.9c1.2-0.9,2.6-1.3,4.2-1.3
  c1.5,0,2.7,0.4,3.9,1.2c1.1,0.8,1.8,1.8,2.2,3H234z"/>
</svg>
